<?xml version="1.0" encoding="utf-8"?>
<!-- Generator: Adobe Illustrator 24.0.1, SVG Export Plug-In . SVG Version: 6.00 Build 0)  -->
<svg version="1.1" xmlns="http://www.w3.org/2000/svg" xmlns:xlink="http://www.w3.org/1999/xlink" x="0px" y="0px"
	 viewBox="0 0 750 500" style="enable-background:new 0 0 750 500;" xml:space="preserve">
<style type="text/css">
	.st0{fill:#FFFFFF;}
	.st1{opacity:0.45;}
	.st2{fill:#D2DEF9;}
	.st3{fill:none;stroke:#FFFFFF;stroke-width:1.5;stroke-miterlimit:10;}
	.st4{fill:none;stroke:#FFFFFF;stroke-width:1.5;stroke-linejoin:round;stroke-miterlimit:10;}
	.st5{fill:#E9F1FF;}
	.st6{fill:#F777BA;}
	.st7{fill:#0B0B3A;}
	.st8{fill:#18277A;}
	.st9{fill:#212237;}
	.st10{fill:none;stroke:#CC328A;stroke-width:0.75;stroke-linejoin:round;stroke-miterlimit:10;}
	.st11{fill:#FF855A;}
	.st12{fill:none;stroke:#CC328A;stroke-width:0.5;stroke-linejoin:round;stroke-miterlimit:10;}
	.st13{fill:#00276F;}
	.st14{fill:none;stroke:#00276F;stroke-width:0.5;stroke-linecap:round;stroke-linejoin:round;stroke-miterlimit:10;}
	.st15{fill:#FF9357;}
	.st16{fill:none;stroke:#A52F2D;stroke-width:0.75;stroke-miterlimit:10;}
	.st17{fill:#83A3FC;}
	.st18{opacity:0.19;clip-path:url(#SVGID_2_);}
	.st19{fill:none;stroke:#91ABE5;stroke-width:11;stroke-miterlimit:10;}
	.st20{fill:#FFC7CA;}
	.st21{opacity:0.25;clip-path:url(#SVGID_4_);}
	.st22{fill:none;stroke:#FFFFFF;stroke-width:11;stroke-miterlimit:10;}
	.st23{fill:#B5C8F7;}
	.st24{clip-path:url(#SVGID_6_);}
	.st25{fill:#9FBFFF;}
	.st26{opacity:0.35;clip-path:url(#SVGID_8_);}
	.st27{fill:none;stroke:#1A3987;stroke-width:0.75;stroke-linejoin:round;stroke-miterlimit:10;}
	.st28{fill:#FFE1AD;}
	.st29{fill:#CC328A;}
	.st30{fill:#2A2A68;}
	.st31{fill:none;stroke:#5565AA;stroke-width:0.75;stroke-miterlimit:10;}
	.st32{fill:#2E7EFA;}
	.st33{fill:#4376CF;}
	.st34{fill:#9CD0FF;}
	.st35{fill:#816FC2;}
	.st36{fill:none;stroke:#4C3F89;stroke-width:0.75;stroke-miterlimit:10;}
	.st37{fill:none;stroke:#D19B4B;stroke-width:0.75;stroke-miterlimit:10;}
	.st38{fill:none;stroke:#91ABE5;stroke-width:1.5;stroke-miterlimit:10;}
	.st39{fill:none;stroke:#FF9C94;stroke-width:1.5;stroke-miterlimit:10;}
</style>
<g id="BACKGROUND">
	<rect class="st0" width="750" height="500"/>
</g>
<g id="OBJECTS">
	<g>
		<g>
			<g class="st1">
				<path class="st2" d="M73.6,146c0,0,0.1,0,0.2,0c8.7,0,17.5,0,26.2,0c15.5,0,31,0,46.5,0c11.4,0,15-0.4,26.4,0
					c0.1-7-1.8-13.7-5.2-17.2c-2.8-2.9-7.5-4.5-11.4-3.5c-4.9,1.3-8.3,4.6-11.5,7c-1.1-9.7-5.1-18.5-9.4-20.5
					c-7.4-3.3-15.2,1.9-18.6,7.1c-2.9,4.2-4.4,9.2-5,14.3c-4.7-5.1-15.1-9.1-18.8-0.9c-1.5,3.2-1.4,6.9-1.2,10.4
					C85.5,141,78.7,142.3,73.6,146z"/>
			</g>
			<g class="st1">
				<path class="st2" d="M608.7,83.2c-1.4-5.7-14.6-14-21.7-9c-2.2-10.8-4.2-17.6-11.3-22.9c-7.1-5.3-18.9,1.6-20.8,16.3
					c-1.9-6-11.6-14.1-19.3-7.3c-7.2,6.3-7.9,16.9-7.2,22.9H608.7z"/>
			</g>
			<g class="st1">
				<path class="st2" d="M700.7,158.9c-2.2-5.4-6.3-8.3-11.2-8.8c-6.2-0.7-12.4,2.9-12.4,2.9s2.3-8.9-0.8-15.9
					c-2.1-4.8-5.6-9.3-10.3-10.4c-4.9-1.2-10.1,1.2-13.8,5c-3.7,3.8-6,8.8-8.1,13.8c-1.1-3.6-2.5-7.5-5.7-8.9
					c-3.3-1.4-7.2,1-8.9,4.4c-1.7,3.4-1.8,7.5-1.6,11.3c-3.9-2.3-8.8-3-12.6-0.7c-2.5,1.5-4.2,4.4-4.6,7.4H700.7z"/>
			</g>
		</g>
		<g>
			<g>
				<path class="st2" d="M255.1,280.6c-20.2-6.9-37.8-20.5-50.9-37.3c-13.1-16.8-27.9-53.7-25.4-84.9
					c58.2,17.3,81.8,71.3,85.3,104.1"/>
				<path class="st3" d="M178.7,158.4c0,0,9.6,75,76.8,116.4"/>
				<path class="st3" d="M178.7,158.4c0,0,39.7,71.1,83.2,114.4"/>
				<path class="st3" d="M178.7,158.4c0,0,58.6,46.5,85.9,110.2"/>
			</g>
			<g>
				<path class="st2" d="M255.3,404.4c-23,8.6-48.4,8.8-72,2.6s-62.8-30.6-82.4-62.4c56.2-19.1,123.6,6.9,149.8,35.7"/>
				<path class="st4" d="M100.9,344.6c0,0,61.2,64.8,150.8,53.9"/>
				<path class="st4" d="M100.9,344.6c0,0,85.6,38.4,155.1,47.2"/>
				<path class="st4" d="M100.9,344.6c0,0,85.4,0.6,154.6,41.2"/>
			</g>
			<g>
				<path class="st5" d="M276.8,246.7c-19.5-14.5-33.3-35.3-40.8-58.3c-7.5-22.9-8.4-68.5,7.4-101.9c46.1,36.3,60.8,106.2,51,143.4"
					/>
				<path class="st4" d="M243.4,86.5c0,0-20.8,85.6,36.4,154"/>
				<path class="st4" d="M243.4,86.5c0,0,14.2,91.6,44.3,154"/>
				<path class="st4" d="M243.4,86.5c0,0,45.4,71.1,49,150.3"/>
			</g>
			<g>
				<path class="st2" d="M453.2,235.9c19.6-3.7,37.8-14,52.2-27.8c14.4-13.9,33-46.1,34.8-75.4c-56.2,8.3-85.3,55.3-92.9,85.2"/>
				<path class="st4" d="M540.2,132.7c0,0-18.8,68.3-86.7,97.7"/>
				<path class="st4" d="M540.2,132.7c0,0-46.2,60.7-92.3,95"/>
				<path class="st4" d="M540.2,132.7c0,0-60.5,35.4-94.3,90.8"/>
			</g>
			<g>
				<path class="st2" d="M508.2,394.5c28.7,5.5,58.9,1.3,85.9-9.8c27-11.1,69.7-45.1,87.8-83.9c-81-18.9-145.7,29.4-172.2,66"/>
				<path class="st4" d="M682,300.9c0,0-62.3,82.8-170.4,86.5"/>
				<path class="st4" d="M682,300.9c0,0-85.2,56.9-172.5,73"/>
				<path class="st4" d="M682,300.9c0,0-101.3,15.7-177,73"/>
			</g>
			<g>
				<path class="st5" d="M427.9,228.3c24.7-10.6,45-29.6,59-52.5c14-22.9,26.7-71.8,18.1-111.9c-59,27.4-92.8,99.1-91.7,141.7"/>
				<path class="st4" d="M504.9,63.9c0,0,0.5,97.8-78.7,156.9"/>
				<path class="st4" d="M504.9,63.9c0,0-38.8,95.3-87.2,154.9"/>
				<path class="st4" d="M504.9,63.9c0,0-67.3,65.1-91.4,149.8"/>
			</g>
			<g>
				<path class="st5" d="M251.3,366.7c-13.4,2.1-36.2,5.2-48.8-3.2c-7-4.6-8.2-13.2-11-20.8c-4.7-12.9-14.2-20.6-26.9-22.8
					c-5.1-0.9-10.5-3.2-12.9-8c-3.6-7.2,0.8-16.5-2.1-24.1c-1.6-4.1-5-6.9-7.8-10.2c-6.8-7.8-8.4-19.4-8.4-19.4s8.2,2.6,17.3-0.3
					c5.9-1.8,12.3-3,18.4-2c4.8,0.8,8.5,3.3,11.6,7.1c3.8,4.5,6.9,7.9,12.3,9.8c8.4,2.9,29.1-4.1,31.4,7.9c0.6,3.3-0.2,6.8,1.4,9.9
					c2.7,5.5,9.3,2.7,13.8,4.1c6.9,2.2,14.5,7.2,17.5,13.7c7.1,15.5,6.8,36.9,2.8,53.7"/>
				<path class="st4" d="M134.3,258.4c22.6,24.4,56.8,33.6,78.8,58.6c6.6,7.5,11.9,16.2,18.1,24c6.2,7.9,13.7,15.1,22.9,18.2"/>
				<path class="st4" d="M150,305.1c11.8,1.3,29.7,1,47.5-2.4c0,0-4.3-22.9-8-31.7"/>
				<path class="st4" d="M150.4,297.5c13,0.9,23.9,0.2,39-0.4"/>
				<path class="st4" d="M148.5,285.8c0,0,11,0.4,21.1-1"/>
				<path class="st4" d="M137.7,271.1c0.1,0.2,3.5,0.6,11.5,0.4"/>
				<path class="st4" d="M165.1,282.1c0.1,0.1-5.2-16.2-9.3-25.5"/>
				<path class="st4" d="M186.3,295.1c-0.1,0-5.2-25.8-10.3-36.5"/>
				<path class="st4" d="M176.1,323.9c0.4,0.2,22.6,1.7,40.9-2.2"/>
				<path class="st4" d="M211.5,315.2c0,0-2.3-27.5-5.8-41.5"/>
				<path class="st4" d="M229.1,291.4c2.6,16.9,2.9,50.6,2.9,50.6s-28.6,3.9-40.5,0.6"/>
				<path class="st4" d="M244.3,354c0,0,1-38.1-1.2-58"/>
				<path class="st4" d="M193.7,350.2c0,0,23.1,3.3,42.5-3.5"/>
				<path class="st4" d="M249,357c0,0,6.6-30.1,1.8-56.5"/>
			</g>
			<g>
				<path class="st5" d="M435.7,203c6.1-15.7,16-31.3,9.9-48.7c-3.4-9.6-13.6-13.7-21.5-18.8c-13.5-8.9-19.5-22.4-18.5-38.3
					c0.4-6.4-0.7-13.5-5.6-17.6c-7.2-6.2-19.1-3.1-26.9-8.5c-4.2-2.9-6.5-7.7-9.5-11.9c-7-10.2-19.8-15.1-19.8-15.1s0.7,10.6-5.1,21
					c-3.7,6.7-6.8,14.1-7.4,21.9c-0.5,6.1,1.4,11.1,4.9,15.9c4.1,5.7,7.1,10.4,7.8,17.4c1,10.9-12.8,34.3,0.3,40.1
					c3.6,1.6,7.8,1.5,10.9,4.1c5.6,4.7,0.5,12,0.9,17.8c0.6,8.9,4.1,19.4,10.7,24.6c15.7,12.4,40.1,17.4,60.4,16.7"/>
				<path class="st4" d="M343.9,45.1c21.5,33.5,22.5,77.2,44.9,110.2c6.7,9.9,15.1,18.5,22.4,28c7.2,9.5,13.4,20.4,14.3,32.3"/>
				<path class="st4" d="M377,132.8c0,0-24.9-11-33.8-17.6"/>
				<path class="st4" d="M384.1,74.3c-2.5,16-6.4,29-11.3,47.2"/>
				<path class="st4" d="M371.3,69.1c0,0-2.6,13.5-7,25.3"/>
				<path class="st4" d="M357.5,52.3c0.2,0.1-0.3,4.4-2.7,14.1"/>
				<path class="st4" d="M362.5,88.4c0,0.1-17-10.3-26.5-17.6"/>
				<path class="st4" d="M371.3,117.3c0-0.1-27.9-12.7-38.8-21.5"/>
				<path class="st4" d="M405,88.4c-2.4,9.2-7.1,33.2-21,57"/>
				<path class="st4" d="M387.2,152.8c0,0-30.7-9.6-45.7-17.4"/>
				<path class="st4" d="M422.3,202.3c0,0-43.7-8.2-65.8-15.9"/>
				<path class="st4" d="M432.1,139.9c0,0-2.7,28.8-15.7,50.8"/>
			</g>
			<g>
				<path class="st5" d="M523.6,340.7c17.4-3.4,36.7-3.2,48.8-18.3c6.7-8.3,4.5-19.7,4.8-29.6c0.4-16.9,9-29.8,23.8-37.8
					c5.9-3.2,11.6-8.1,12.6-14.8c1.5-9.9-7.9-18.6-7.4-28.6c0.2-5.4,3.2-10.1,5.3-15.1c5.1-11.9,2.4-26,2.4-26s-9,6.5-21.5,7.1
					c-8,0.4-16.3,1.8-23.6,5.6c-5.6,3-9.1,7.4-11.4,13.2c-2.8,6.8-5.2,12.1-11.1,16.6c-9.1,6.9-37.6,7.8-35.4,22.6
					c0.6,4,3,7.8,2.4,11.9c-1.1,7.6-10.4,7.2-15.4,10.7c-7.6,5.5-14.9,14.5-15.9,23.2c-2.3,20.9,6.9,45.3,18.8,63"/>
				<path class="st4" d="M612.8,171.2c-17.7,37.8-56.1,63-72.9,101.2c-5,11.5-8,23.7-12.4,35.5c-4.4,11.7-10.7,23.2-20.7,30.7"/>
				<path class="st4" d="M612.8,231.7c-14,6.5-36.2,13.9-59.6,17.7c0,0-4.1-28.2-3.2-39.9"/>
				<path class="st4" d="M609.1,223.1c-15.6,6.7-29.4,10.4-48.3,16.2"/>
				<path class="st4" d="M606.6,208.9c0,0-13.5,5.2-26.4,7.9"/>
				<path class="st4" d="M613.9,187.2c0,0.2-4.1,2.2-14,5.5"/>
				<path class="st4" d="M584.6,211.7c-0.1,0.1-0.3-20.9,0.9-33.3"/>
				<path class="st4" d="M563.8,235.7c0.1-0.1-4.2-31.9-2.5-46.4"/>
				<path class="st4" d="M588.3,264.5c-0.4,0.4-27.2,11.7-51.3,15.1"/>
				<path class="st4" d="M541.1,269.6c0,0-8.6-32.6-10-50.3"/>
				<path class="st4" d="M509.6,249.9c3.8,20.6,17.3,59.5,17.3,59.5s36.9-7.8,50.2-16.7"/>
				<path class="st4" d="M516.7,328.4c0,0-17-43.4-22.5-67.3"/>
				<path class="st4" d="M577.6,302.3c0,0-27.1,13.7-53.9,14.3"/>
				<path class="st4" d="M512.2,333.9c0,0-20.6-31.7-25.6-64.2"/>
			</g>
		</g>
		<g>
			<g>
				<g>
					<g>
						<g>
							<path class="st6" d="M453.1,269.7c2.4,5,12,25.9,14.3,30.9c-7.7,2.5-14.8,5.6-22.3,8.5c-3.2,4.3,3.9-4.2,4.3-8.9"/>
						</g>
						<g>
							<path class="st7" d="M469.6,307.5l-4.4,1.5c-0.2-0.4-0.5-1.8-0.8-2.1c-0.8,0.3-2.5,1-2.7,1.2c-0.2,0.1-0.3,0.7-0.5,1.2
								c-0.2,0.7-0.7,1.3-1.4,1.5l-17.3,6c-2.1,0.7-3.4-1.8-1.5-3.8c1.7-1.9,5.3-5.9,5.5-6c7.1-1.7,17.9-6.9,19.3-10
								C468.2,298.2,469.7,307.4,469.6,307.5z"/>
						</g>
					</g>
					<path class="st6" d="M451.2,212.9c0.4,11.3-0.8,34,0.7,43.7c1,6.1,11.9,36.2,11.9,36.2l-14.4,7.5c0,0-12.3-19.1-19.4-41.6
						c-4.6-14.6-4.9-30.7-4.9-43.9"/>
				</g>
				<g>
					<g>
						<g>
							<path class="st6" d="M488.8,246.3c4,3.7,20.7,19.6,24.8,23.3c-6.2,5.1-11.6,10.7-17.5,16.2c-1.4,5.2,2.1-5.4,0.7-9.8"/>
						</g>
						<g>
							<path class="st7" d="M518.1,275.3l-3.5,3c-0.3-0.4-1.1-1.4-1.5-1.7c-0.7,0.6-2,1.9-2.1,2.1c-0.1,0.2,0,0.8,0,1.3
								c0.1,0.8-0.2,1.5-0.7,1.9l-13.9,12c-1.7,1.5-3.8-0.4-2.8-3c0.9-2.3,2.8-7.4,2.9-7.6c6-4.2,14.1-13,14.2-16.5
								C513.4,267.2,518.1,275.2,518.1,275.3z"/>
						</g>
					</g>
					<path class="st6" d="M474.7,191.6c0,0-0.9,33.3,3.7,41.8c5.4,10,23,25,23,25l-4.7,17.6c0,0-24.6-13.8-37.5-30.3
						c-9.8-12.6-10.2-52.2-10.2-52.2"/>
				</g>
				<g>
					<path class="st8" d="M473.4,163.7c17.4,13.4,15.9,67,15.9,67s-19.3,5.1-35.1,5.1c-15.8,0-32.2-2.5-32.2-2.5
						c1-46.1,9.1-58.1,13.8-66"/>
				</g>
			</g>
			<g>
				<g>
					<path class="st9" d="M441,90.5c0,0,3.9,11.4,3.3,14.1c-0.6,2.7-9.3,1.9-11.5,1.8c-0.2-5.8,1.8-14,1.8-14"/>
					<path class="st6" d="M442.3,103.9l0.9,6.4c0,0,4.6,3,8.5,1.4c4.1-1.7,3.9-3.9,3.9-3.9l-4.9-11.7"/>
					<path class="st6" d="M435.8,92.8c-0.1,8.2,1.4,14.6,6.8,14.2c5.7-0.4,9.9-5.1,7.9-11.5C448.3,88.7,436.3,88,435.8,92.8z"/>
					<path class="st10" d="M442.8,107.4c2.8-0.5,6.1-1.9,7.6-5.7"/>
					<g>
						<g>
							<polygon class="st11" points="449.6,95.1 449.6,95.1 449.6,95.1 							"/>
						</g>
					</g>
					<g>
						<g>
							<path class="st11" d="M449.6,95.1C449.6,95.1,449.6,95.2,449.6,95.1C449.6,95.2,449.6,95.2,449.6,95.1
								C449.6,95.2,449.7,95.1,449.6,95.1C449.7,95.1,449.6,95.1,449.6,95.1L449.6,95.1z"/>
						</g>
					</g>
					<g>
						<path class="st9" d="M444.3,92.2c-4.6,1.2-7.9,1.1-11-0.1c0.5-2.8,2.2-6.7,7.3-6.8c3.6-3.3,7.8-2.1,8.9-1.8c3,1,5,2.8,6.6,5.5
							c2.6,4.4,3.2,11.1,3.1,14.8c-4,1.1-7.4,1.7-10,1.8C449.5,105.7,447.7,94.6,444.3,92.2z"/>
					</g>
					<g>
						<path class="st6" d="M447,97.6c-0.1-0.2,0.1-0.9,0.7-1.3c1.1-0.7,2.2,0.7,2.3,1.9c0.1,0.8-0.1,1.4-0.5,2.1
							c-0.5,0.9-1.4,1.3-2.1,0.4"/>
					</g>
					<path class="st12" d="M440.1,97.1c0,0-0.9,3.1-0.6,3.8c0.4,0.7,2.1,0.3,2.1,0.3"/>
					<path class="st0" d="M440,102.7l4.9-0.7c0,0-0.2,2.7-2.9,2.9C440,105,440,102.7,440,102.7z"/>
					<g>
						<g>
							<path class="st13" d="M437.8,96.8c0,0.3-0.1,0.5-0.1,0.8c0,0.5,0.8,0.5,0.8,0c0-0.3,0-0.5-0.1-0.8
								C438.5,96.5,437.9,96.4,437.8,96.8L437.8,96.8z"/>
						</g>
					</g>
					<path class="st14" d="M439.1,95.3c0,0-1-0.8-1.8,0.3"/>
					<g>
						<g>
							<path class="st13" d="M443.6,96.6c0,0.2,0,0.4,0,0.7c0,0.5,0.8,0.5,0.8,0c0-0.3-0.1-0.5-0.1-0.8
								C444.2,96.1,443.6,96.2,443.6,96.6L443.6,96.6z"/>
						</g>
					</g>
					<path class="st14" d="M442.9,94.8c0,0,1-0.7,2.7,0.3"/>
				</g>
			</g>
			<g>
				<g>
					<path class="st6" d="M438,138.1c-15.7,21.8-47.8,41.5-47.8,41.5l-6.6-8.4c0,0,24-20.2,38.5-43.3"/>
					<g>
						<path class="st6" d="M386.4,168.9c-2.9,2.6-12.8,8.6-12.6,9.4c0.2,0.8,3.7-1.3,3.8-0.7c0.1,0.7-5.1,4.2-4.7,4.9
							c0.6,1,5.6-3,5.6-3s-5.3,4.6-4.5,5.3c0.5,0.5,4.8-2.8,6.5-3.9c-1.8,1.4-4.4,4-3.8,4.5c0.6,0.5,3.5-1.7,5.8-3.2
							c-1.4,1.1-3.7,3.3-3.2,3.8c0.5,0.5,8-4.4,14.9-9.2"/>
					</g>
					<path class="st10" d="M378.8,177.6c0,0,3.8,0.1,5.4-0.7"/>
				</g>
				<path class="st15" d="M441.4,110.4c-6.9-1.2-13,3.7-15.7,7.9c-5.4,8.6-8.3,15.4-8.3,15.4l16.2,9.7l9.2-28.9"/>
				<path class="st15" d="M441.4,110.4c3.2,0.6,4,1.7,6.2,1c4.1-1.3,7.2-3.4,7.2-3.4c-2.7,0.2,8.7,2.3,17.5,11.5
					c2.9,10.1,3.3,20.1,4.1,46.7c-21.7,7-40.6,1.1-40.6,1.1s-2.5-11.6-5.3-20.2c-3.9-7.9-2.2-16.8,2.2-24.1
					C432.8,118.6,441.4,110.4,441.4,110.4z"/>
				<polygon class="st0" points="454.5,105.3 447.1,111.5 451.8,116.6 456.8,109.1 				"/>
				<polygon class="st0" points="447.1,111.5 442.9,108.2 441.4,110.4 443.4,116.4 				"/>
				<path class="st16" d="M428.3,138.1c-0.3-5.1,2.8-13.1,2.8-13.1"/>
			</g>
		</g>
		<g>
			<g>
				<g>
					<path class="st17" d="M509.2,445.3c-0.3,0-0.6,0-0.9,0l-106.5-7.5c-7.2-0.5-12.6-6.8-12.1-13.9l2.2-31.3c0.1-2,1.7-3.5,3.7-3.5
						c1,0,1.9,0.4,2.6,1c3.3,3.1,7.3,4.9,11.5,5.2c0.4,0,0.9,0,1.3,0c10.8,0,19.9-9.7,20.8-22c0.9-12.9-7.5-24-18.8-24.8
						c-0.4,0-0.9,0-1.3,0c-3.8,0-7.6,1.2-10.9,3.6c-0.6,0.5-1.4,0.7-2.2,0.7c-1,0-2-0.4-2.8-1.2c-0.7-0.8-1-1.7-1-2.8l2.2-31.3
						c0.5-6.8,6.2-12.1,13-12.1c0.3,0,0.6,0,0.9,0l32.4,2.3c1.5,0.1,2.8,1.1,3.3,2.5c0.5,1.4,0.1,2.9-1,4c-3.6,3.4-5.8,7.8-6.2,12.5
						c-0.8,11.3,9,21.2,21.9,22.1c0.6,0,1.3,0.1,1.9,0.1c12.1,0,22.2-8.3,22.9-18.8c0.3-4.7-1.2-9.4-4.3-13.3
						c-0.9-1.1-1.1-2.6-0.5-3.9c0.6-1.3,1.9-2.1,3.4-2.1c0.1,0,0.2,0,0.3,0l32.4,2.3c7.2,0.5,12.6,6.8,12.1,13.9l-7.5,106.5
						C521.7,440,516,445.3,509.2,445.3C509.2,445.3,509.2,445.3,509.2,445.3z"/>
					<path class="st0" d="M410.2,306c0.3,0,0.6,0,0.9,0l32.4,2.3c2.6,0.2,3.7,3.4,1.8,5.1c-3.7,3.4-6,7.9-6.4,13
						c-0.8,11.7,9.3,21.9,22.6,22.9c0.7,0,1.3,0.1,2,0.1c12.5,0,22.9-8.4,23.7-19.5c0.4-5.1-1.4-9.9-4.5-13.8
						c-1.6-2-0.1-4.8,2.3-4.8c0.1,0,0.1,0,0.2,0l32.4,2.3c6.8,0.5,11.9,6.4,11.4,13.1l-7.5,106.5c-0.5,6.5-5.9,11.4-12.3,11.4
						c-0.3,0-0.6,0-0.9,0L401.8,437c-6.8-0.5-11.9-6.4-11.4-13.1l2.2-31.3c0.1-1.7,1.5-2.8,3-2.8c0.7,0,1.4,0.3,2.1,0.8
						c3.3,3.1,7.4,5.1,12,5.4c0.4,0,0.9,0,1.3,0c11.1,0,20.6-9.9,21.6-22.7c0.9-13.3-7.8-24.8-19.5-25.6c-0.4,0-0.9,0-1.3,0
						c-4.1,0-8,1.3-11.3,3.7c-0.5,0.4-1.1,0.6-1.7,0.6c-1.6,0-3.1-1.3-3-3.2l2.2-31.3C398.4,310.9,403.8,306,410.2,306 M410.2,304.5
						L410.2,304.5c-7.2,0-13.2,5.6-13.7,12.8l-2.2,31.3c-0.1,1.3,0.3,2.4,1.2,3.4c0.9,0.9,2.1,1.4,3.3,1.4c0.9,0,1.8-0.3,2.6-0.8
						c3.2-2.2,6.8-3.4,10.4-3.4c0.4,0,0.8,0,1.2,0c10.9,0.8,19,11.5,18.1,24c-0.8,11.9-9.7,21.3-20.1,21.3c-0.4,0-0.8,0-1.2,0
						c-4.1-0.3-7.9-2-11.1-5c-0.8-0.8-1.9-1.2-3.1-1.2c-2.4,0-4.3,1.8-4.5,4.2l-2.2,31.3c-0.5,7.6,5.2,14.2,12.8,14.7l106.5,7.5
						c0.3,0,0.7,0,1,0c7.2,0,13.2-5.6,13.7-12.8l7.5-106.5c0.5-7.6-5.2-14.2-12.8-14.7l-32.4-2.3c-0.1,0-0.2,0-0.3,0
						c-1.7,0-3.3,1-4,2.6c-0.7,1.6-0.5,3.4,0.6,4.7c3.1,3.8,4.5,8.2,4.2,12.7c-0.7,10.2-10.5,18.2-22.2,18.2c-0.6,0-1.2,0-1.9-0.1
						c-6.1-0.4-11.6-2.9-15.7-7c-4-4-5.9-9.1-5.6-14.3c0.3-4.6,2.4-8.7,5.9-12c1.3-1.2,1.8-3,1.2-4.8c-0.6-1.7-2.1-2.9-3.9-3
						l-32.4-2.3C410.9,304.5,410.6,304.5,410.2,304.5L410.2,304.5L410.2,304.5z"/>
				</g>
				<g>
					<defs>
						<path id="SVGID_1_" d="M485.2,311.3c-2.6-0.2-4.2,2.8-2.5,4.8c3.2,3.9,4.9,8.7,4.5,13.8c-0.8,11.7-12.3,20.4-25.6,19.5
							c-13.3-0.9-23.5-11.2-22.6-22.9c0.4-5.1,2.7-9.6,6.4-13c1.9-1.8,0.8-5-1.8-5.1l-32.4-2.3c-6.8-0.5-12.7,4.6-13.1,11.4
							l-2.2,31.3c-0.2,2.5,2.6,4.1,4.7,2.6c3.7-2.6,8-4,12.6-3.6c11.7,0.8,20.4,12.3,19.5,25.6c-0.9,13.3-11.2,23.5-22.9,22.6
							c-4.6-0.3-8.7-2.3-12-5.4c-1.8-1.7-4.9-0.6-5,1.9l-2.2,31.3c-0.5,6.8,4.6,12.7,11.4,13.1l106.5,7.5
							c6.8,0.5,12.7-4.6,13.1-11.4l7.5-106.5c0.5-6.8-4.6-12.7-11.4-13.1L485.2,311.3z"/>
					</defs>
					<clipPath id="SVGID_2_">
						<use xlink:href="#SVGID_1_"  style="overflow:visible;"/>
					</clipPath>
					<g class="st18">
						
							<ellipse transform="matrix(0.997 -7.795321e-02 7.795321e-02 0.997 -35.1171 39.914)" class="st19" cx="493.7" cy="469.8" rx="60.9" ry="60.9"/>
						<circle class="st19" cx="492.6" cy="468.3" r="38.5"/>
						
							<ellipse transform="matrix(0.9653 -0.261 0.261 0.9653 -105.5084 145.1582)" class="st19" cx="493.7" cy="469.8" rx="20.1" ry="20.1"/>
					</g>
				</g>
			</g>
			<g>
				<g>
					<path class="st20" d="M357.8,303.1c-0.5,0-1.1,0-1.6-0.1l-32.4-4.1c-1.5-0.2-2.7-1.2-3.1-2.7c-0.4-1.5,0-2.9,1.2-3.9
						c3.9-3.2,6.4-7.6,7-12.3c0.7-5.4-1.1-10.8-5-15.2c-3.9-4.4-9.5-7.3-15.7-8.1c-1.1-0.1-2.3-0.2-3.4-0.2
						c-11.5,0-21.2,7.6-22.4,17.6c-0.6,4.7,0.7,9.6,3.7,13.6c0.8,1.2,1,2.6,0.3,3.9c-0.6,1.3-1.9,2.1-3.3,2.1c-0.2,0-0.3,0-0.5,0
						l-32.4-4.1c-3.5-0.4-6.5-2.2-8.7-4.9c-2.1-2.8-3.1-6.2-2.6-9.6l13.3-105.9c0.8-6.5,6.4-11.4,12.9-11.4c0.5,0,1.1,0,1.6,0.1
						l105.9,13.3c3.5,0.4,6.5,2.2,8.7,4.9c2.1,2.8,3.1,6.2,2.6,9.6l-4,31.8c-0.2,1.9-1.8,3.3-3.7,3.3c-1.1,0-2.1-0.5-2.8-1.3
						c-3.2-3.7-7.3-5.9-11.8-6.5c-0.7-0.1-1.5-0.1-2.3-0.1c-10.5,0-19.5,9-21,20.8c-1.6,12.8,6.2,24.4,17.4,25.8
						c0.7,0.1,1.5,0.1,2.3,0.1c3.8,0,7.5-1.2,10.8-3.5c0.6-0.4,1.3-0.7,2.1-0.7c1.1,0,2.1,0.5,2.8,1.3c0.7,0.8,1,1.8,0.9,2.9
						l-4,31.8C369.9,298.2,364.3,303.1,357.8,303.1z"/>
					<path class="st0" d="M265.1,158.6c0.5,0,1,0,1.5,0.1L372.6,172c6.7,0.8,11.5,7,10.7,13.7l-4,31.8c-0.2,1.6-1.6,2.6-3,2.6
						c-0.8,0-1.6-0.3-2.2-1c-3.2-3.6-7.4-6.1-12.3-6.7c-0.8-0.1-1.6-0.1-2.4-0.1c-10.7,0-20.2,9.1-21.7,21.5
						c-1.7,13.3,6.4,25.2,18.1,26.6c0.8,0.1,1.6,0.1,2.3,0.1c4,0,7.9-1.3,11.2-3.6c0.5-0.4,1.1-0.5,1.7-0.5c1.7,0,3.2,1.5,3,3.4
						l-4,31.8c-0.8,6.2-6.1,10.8-12.2,10.8c-0.5,0-1,0-1.5-0.1l-32.4-4.1c-2.6-0.3-3.5-3.6-1.5-5.2c3.9-3.2,6.6-7.7,7.2-12.8
						c1.5-11.6-8.1-22.4-21.4-24.1c-1.2-0.1-2.3-0.2-3.5-0.2c-11.8,0-21.9,7.7-23.2,18.3c-0.6,5.1,0.9,10.1,3.9,14.2
						c1.5,2,0,4.7-2.4,4.7c-0.1,0-0.3,0-0.4,0l-32.4-4.1c-6.7-0.8-11.5-7-10.7-13.7L253,169.3C253.7,163.1,259,158.6,265.1,158.6
						 M265.1,157.1l0,1.5L265.1,157.1c-6.9,0-12.8,5.2-13.7,12.1L238.1,275c-0.9,7.5,4.4,14.5,12,15.4l32.4,4.1c0.2,0,0.4,0,0.6,0
						c1.7,0,3.2-0.9,4-2.5c0.8-1.5,0.6-3.3-0.4-4.7c-2.9-3.9-4.2-8.6-3.6-13.1c1.2-9.7,10.5-17,21.7-17c1.1,0,2.2,0.1,3.3,0.2
						c12.4,1.6,21.4,11.6,20.1,22.4c-0.6,4.5-3,8.7-6.7,11.8c-1.4,1.1-2,2.9-1.5,4.7c0.5,1.8,1.9,3,3.7,3.2l32.4,4.1
						c0.6,0.1,1.2,0.1,1.7,0.1c6.9,0,12.8-5.2,13.7-12.1l4-31.8c0.2-1.3-0.2-2.5-1.1-3.5c-0.9-1-2.1-1.5-3.4-1.5
						c-0.9,0-1.8,0.3-2.5,0.8c-3.2,2.2-6.8,3.3-10.4,3.3c-0.7,0-1.4,0-2.2-0.1c-5.2-0.7-9.8-3.6-13-8.3c-3.2-4.7-4.6-10.7-3.8-16.7
						c1.4-11.5,10.1-20.2,20.2-20.2c0.7,0,1.5,0,2.2,0.1c4.4,0.5,8.3,2.7,11.4,6.2c0.9,1,2,1.5,3.3,1.5c2.3,0,4.2-1.7,4.5-3.9
						l4-31.8c0.5-3.7-0.5-7.3-2.8-10.2c-2.3-2.9-5.5-4.8-9.2-5.2l-105.9-13.3C266.3,157.1,265.7,157.1,265.1,157.1L265.1,157.1z"/>
				</g>
				<g>
					<defs>
						<path id="SVGID_3_" d="M355.7,260.4c-11.6-1.5-19.7-13.4-18.1-26.6c1.7-13.3,12.4-22.8,24.1-21.4c4.9,0.6,9.1,3.1,12.3,6.7
							c1.7,1.9,4.9,0.9,5.2-1.6l4-31.8c0.8-6.7-3.9-12.9-10.7-13.7l-105.9-13.3c-6.7-0.8-12.9,3.9-13.7,10.7l-13.3,105.9
							c-0.8,6.7,3.9,12.9,10.7,13.7l32.4,4.1c2.6,0.3,4.3-2.6,2.8-4.7c-3-4.1-4.5-9-3.9-14.2c1.5-11.6,13.4-19.7,26.6-18.1
							c13.3,1.7,22.8,12.5,21.4,24.1c-0.6,5.1-3.3,9.6-7.2,12.8c-2,1.7-1.1,4.9,1.5,5.2l32.4,4.1c6.7,0.8,12.9-3.9,13.7-10.7l4-31.8
							c0.3-2.5-2.5-4.3-4.6-2.8C365.4,259.7,360.6,261,355.7,260.4z"/>
					</defs>
					<clipPath id="SVGID_4_">
						<use xlink:href="#SVGID_3_"  style="overflow:visible;"/>
					</clipPath>
					<g class="st21">
						<circle class="st22" cx="252.5" cy="170.6" r="60.9"/>
						<circle class="st22" cx="251.3" cy="169.3" r="41.5"/>
						<circle class="st22" cx="252.5" cy="170.6" r="20.1"/>
					</g>
				</g>
			</g>
			<g>
				<g>
					<path class="st23" d="M454.7,336.5c-6.6-0.1-12.9-2.4-17.5-6.6c-4.7-4.2-7.2-9.8-7.2-15.7c0.1-5.2,2.2-10.2,6-14.1
						c0.8-0.8,0.7-1.7,0.5-2.4c-0.3-0.7-1-1.4-2-1.4l-32.7-0.3c-3.5,0-6.7-1.4-9.2-3.9c-2.4-2.5-3.8-5.8-3.7-9.3l0.3-31.6
						c0-0.8-0.3-1.3-0.6-1.6c-0.4-0.4-1-0.7-1.6-0.7c-0.5,0-1,0.2-1.4,0.5c-3.8,3.1-8.2,4.8-12.9,4.8l-0.2,0
						c-5.9-0.1-11.4-2.7-15.5-7.5c-4.1-4.7-6.3-11-6.2-17.7c0.1-13.6,10-24.7,22-24.7l0.2,0c4.7,0,9.2,1.8,13,5
						c0.4,0.3,0.9,0.5,1.4,0.5c1.1,0,2.2-0.8,2.2-2.2l0.3-31.6c0.1-7.1,5.9-12.9,13-12.9l106.9,1.1c3.5,0,6.7,1.4,9.2,3.9
						c2.4,2.5,3.8,5.8,3.7,9.3l-1.1,106.7c-0.1,7.1-5.9,12.9-13,12.9l-32.8-0.3c-1.1,0-1.8,0.7-2.1,1.3c-0.4,0.8-0.2,1.7,0.4,2.4
						c3.7,4,5.7,9,5.7,14.2c-0.1,12-11.3,21.7-24.9,21.7L454.7,336.5z"/>
					<path class="st0" d="M402.9,164c0,0,0.1,0,0.1,0l106.7,1.1c6.8,0.1,12.2,5.6,12.2,12.4l-1.1,106.7c-0.1,6.7-5.6,12.2-12.3,12.2
						c0,0-0.1,0-0.1,0l-32.7-0.3c0,0,0,0,0,0c-2.6,0-4,3.1-2.2,5c3.5,3.7,5.5,8.5,5.5,13.7c-0.1,11.6-10.9,21-24.1,21
						c-0.1,0-0.2,0-0.3,0c-13.4-0.1-24.1-9.8-24-21.5c0.1-5.2,2.2-9.9,5.8-13.6c1.8-1.9,0.5-5-2.1-5l-32.7-0.3
						c-6.8-0.1-12.2-5.6-12.2-12.4l0.3-31.6c0-1.8-1.4-3-3-3c-0.6,0-1.3,0.2-1.8,0.7c-3.5,2.9-7.8,4.6-12.4,4.6c-0.1,0-0.1,0-0.2,0
						c-11.7-0.1-21.1-11-21-24.4c0.1-13.3,9.6-24,21.3-24c0.1,0,0.1,0,0.2,0c4.7,0,9,1.8,12.5,4.8c0.6,0.5,1.2,0.7,1.9,0.7
						c1.5,0,3-1.2,3-3l0.3-31.6C390.7,169.4,396.2,164,402.9,164 M402.9,162.5c-7.5,0-13.7,6.1-13.8,13.7l-0.3,31.6
						c0,0.9-0.8,1.5-1.5,1.5c-0.3,0-0.6-0.1-0.9-0.4c-3.9-3.4-8.6-5.2-13.5-5.2l-0.2,0c-12.4,0-22.6,11.4-22.8,25.5
						c-0.1,14.2,9.9,25.8,22.5,25.9l0.2,0c4.8,0,9.5-1.7,13.4-4.9c0.3-0.2,0.6-0.3,0.9-0.3c0.4,0,0.8,0.2,1.1,0.5
						c0.2,0.2,0.4,0.5,0.4,1.1l-0.3,31.6c-0.1,7.6,6,13.9,13.6,13.9l32.7,0.3c0.9,0,1.3,0.7,1.4,0.9c0.1,0.2,0.3,0.9-0.3,1.6
						c-3.9,4-6.1,9.2-6.2,14.6c-0.1,12.5,11.3,22.9,25.5,23l0.3,0c14,0,25.5-10.1,25.6-22.5c0.1-5.4-2-10.6-5.9-14.7
						c-0.6-0.7-0.4-1.4-0.3-1.6c0.1-0.2,0.5-0.9,1.4-0.9l32.7,0.3l0.1,0c7.5,0,13.7-6.1,13.8-13.7l1.1-106.7
						c0.1-7.6-6-13.9-13.6-13.9l-106.7-1.1L402.9,162.5L402.9,162.5z"/>
				</g>
				<g>
					<defs>
						<path id="SVGID_5_" d="M509.8,165.1L403.1,164c-6.8-0.1-12.4,5.4-12.4,12.2l-0.3,31.6c0,2.5-3,3.9-4.9,2.2
							c-3.5-3-7.8-4.8-12.5-4.8c-11.7-0.1-21.3,10.6-21.5,24c-0.1,13.4,9.3,24.3,21,24.4c4.7,0,9.1-1.7,12.6-4.6
							c1.9-1.6,4.9-0.2,4.8,2.4l-0.3,31.6c-0.1,6.8,5.4,12.4,12.2,12.4l32.7,0.3c2.6,0,3.9,3.2,2.1,5c-3.6,3.7-5.7,8.4-5.8,13.6
							c-0.1,11.7,10.6,21.3,24,21.5c13.4,0.1,24.3-9.3,24.4-21c0.1-5.2-2-10-5.5-13.7c-1.8-1.9-0.4-5,2.2-5l32.7,0.3
							c6.8,0.1,12.3-5.4,12.4-12.2l1.1-106.7C522,170.7,516.6,165.2,509.8,165.1z"/>
					</defs>
					<clipPath id="SVGID_6_">
						<use xlink:href="#SVGID_5_"  style="overflow:visible;"/>
					</clipPath>
					<g class="st24">
						<path class="st0" d="M354.7,183.7c-1.6,0.3-3.1-0.8-3.3-2.4c-0.3-1.6,0.8-3.1,2.4-3.3c1.6-0.3,3.1,0.8,3.3,2.4
							C357.3,181.9,356.3,183.4,354.7,183.7z"/>
						<path class="st0" d="M381.5,179.2c-1.6,0.3-3.1-0.8-3.3-2.4c-0.3-1.6,0.8-3.1,2.4-3.3c1.6-0.3,3.1,0.8,3.3,2.4
							C384.1,177.4,383,178.9,381.5,179.2z"/>
						<path class="st0" d="M408.2,174.6c-1.6,0.3-3.1-0.8-3.3-2.4c-0.3-1.6,0.8-3.1,2.4-3.3c1.6-0.3,3.1,0.8,3.3,2.4
							C410.8,172.9,409.8,174.4,408.2,174.6z"/>
						<path class="st0" d="M435,170.1c-1.6,0.3-3.1-0.8-3.3-2.4c-0.3-1.6,0.8-3.1,2.4-3.3c1.6-0.3,3.1,0.8,3.3,2.4
							C437.6,168.4,436.5,169.9,435,170.1z"/>
						<path class="st0" d="M461.7,165.6c-1.6,0.3-3.1-0.8-3.3-2.4c-0.3-1.6,0.8-3.1,2.4-3.3c1.6-0.3,3.1,0.8,3.3,2.4
							C464.3,163.9,463.3,165.3,461.7,165.6z"/>
						<path class="st0" d="M488.5,161.1c-1.6,0.3-3.1-0.8-3.3-2.4c-0.3-1.6,0.8-3.1,2.4-3.3c1.6-0.3,3.1,0.8,3.3,2.4
							C491.1,159.4,490,160.8,488.5,161.1z"/>
						<path class="st0" d="M515.2,156.6c-1.6,0.3-3.1-0.8-3.3-2.4c-0.3-1.6,0.8-3.1,2.4-3.3c1.6-0.3,3.1,0.8,3.3,2.4
							C517.8,154.8,516.8,156.3,515.2,156.6z"/>
						<path class="st0" d="M358.4,205.6c-1.6,0.3-3.1-0.8-3.3-2.4c-0.3-1.6,0.8-3.1,2.4-3.3c1.6-0.3,3.1,0.8,3.3,2.4
							C361,203.9,360,205.4,358.4,205.6z"/>
						
							<ellipse transform="matrix(0.9856 -0.1693 0.1693 0.9856 -28.0124 67.9793)" class="st0" cx="384.7" cy="198.3" rx="2.9" ry="2.9"/>
						<path class="st0" d="M411.9,196.6c-1.6,0.3-3.1-0.8-3.3-2.4c-0.3-1.6,0.8-3.1,2.4-3.3c1.6-0.3,3.1,0.8,3.3,2.4
							C414.5,194.9,413.5,196.3,411.9,196.6z"/>
						<path class="st0" d="M438.7,192.1c-1.6,0.3-3.1-0.8-3.3-2.4c-0.3-1.6,0.8-3.1,2.4-3.3c1.6-0.3,3.1,0.8,3.3,2.4
							C441.3,190.3,440.2,191.8,438.7,192.1z"/>
						<path class="st0" d="M465.4,187.6c-1.6,0.3-3.1-0.8-3.3-2.4c-0.3-1.6,0.8-3.1,2.4-3.3c1.6-0.3,3.1,0.8,3.3,2.4
							C468,185.8,467,187.3,465.4,187.6z"/>
						<path class="st0" d="M492.2,183.1c-1.6,0.3-3.1-0.8-3.3-2.4c-0.3-1.6,0.8-3.1,2.4-3.3c1.6-0.3,3.1,0.8,3.3,2.4
							C494.8,181.3,493.7,182.8,492.2,183.1z"/>
						<path class="st0" d="M518.9,178.6c-1.6,0.3-3.1-0.8-3.3-2.4c-0.3-1.6,0.8-3.1,2.4-3.3c1.6-0.3,3.1,0.8,3.3,2.4
							C521.5,176.8,520.5,178.3,518.9,178.6z"/>
						<path class="st0" d="M362.1,227.6c-1.6,0.3-3.1-0.8-3.3-2.4c-0.3-1.6,0.8-3.1,2.4-3.3c1.6-0.3,3.1,0.8,3.3,2.4
							C364.7,225.8,363.7,227.3,362.1,227.6z"/>
						<path class="st0" d="M388.9,223.1c-1.6,0.3-3.1-0.8-3.3-2.4c-0.3-1.6,0.8-3.1,2.4-3.3c1.6-0.3,3.1,0.8,3.3,2.4
							C391.5,221.3,390.4,222.8,388.9,223.1z"/>
						<path class="st0" d="M415.6,218.6c-1.6,0.3-3.1-0.8-3.3-2.4c-0.3-1.6,0.8-3.1,2.4-3.3c1.6-0.3,3.1,0.8,3.3,2.4
							C418.2,216.8,417.2,218.3,415.6,218.6z"/>
						<path class="st0" d="M442.4,214.1c-1.6,0.3-3.1-0.8-3.3-2.4c-0.3-1.6,0.8-3.1,2.4-3.3c1.6-0.3,3.1,0.8,3.3,2.4
							C445,212.3,443.9,213.8,442.4,214.1z"/>
						<path class="st0" d="M469.1,209.5c-1.6,0.3-3.1-0.8-3.3-2.4c-0.3-1.6,0.8-3.1,2.4-3.3c1.6-0.3,3.1,0.8,3.3,2.4
							C471.7,207.8,470.7,209.3,469.1,209.5z"/>
						<path class="st0" d="M495.9,205c-1.6,0.3-3.1-0.8-3.3-2.4c-0.3-1.6,0.8-3.1,2.4-3.3c1.6-0.3,3.1,0.8,3.3,2.4
							C498.5,203.3,497.4,204.8,495.9,205z"/>
						<path class="st0" d="M522.6,200.5c-1.6,0.3-3.1-0.8-3.3-2.4c-0.3-1.6,0.8-3.1,2.4-3.3c1.6-0.3,3.1,0.8,3.3,2.4
							C525.2,198.8,524.2,200.2,522.6,200.5z"/>
						<path class="st0" d="M365.8,249.5c-1.6,0.3-3.1-0.8-3.3-2.4c-0.3-1.6,0.8-3.1,2.4-3.3c1.6-0.3,3.1,0.8,3.3,2.4
							C368.4,247.8,367.4,249.3,365.8,249.5z"/>
						<path class="st0" d="M392.6,245c-1.6,0.3-3.1-0.8-3.3-2.4c-0.3-1.6,0.8-3.1,2.4-3.3c1.6-0.3,3.1,0.8,3.3,2.4
							C395.2,243.3,394.1,244.8,392.6,245z"/>
						<path class="st0" d="M419.3,240.5c-1.6,0.3-3.1-0.8-3.3-2.4c-0.3-1.6,0.8-3.1,2.4-3.3c1.6-0.3,3.1,0.8,3.3,2.4
							C421.9,238.8,420.9,240.3,419.3,240.5z"/>
						<path class="st0" d="M446.1,236c-1.6,0.3-3.1-0.8-3.3-2.4c-0.3-1.6,0.8-3.1,2.4-3.3c1.6-0.3,3.1,0.8,3.3,2.4
							C448.7,234.3,447.6,235.7,446.1,236z"/>
						<path class="st0" d="M472.8,231.5c-1.6,0.3-3.1-0.8-3.3-2.4c-0.3-1.6,0.8-3.1,2.4-3.3c1.6-0.3,3.1,0.8,3.3,2.4
							C475.4,229.8,474.4,231.2,472.8,231.5z"/>
						<path class="st0" d="M499.6,227c-1.6,0.3-3.1-0.8-3.3-2.4c-0.3-1.6,0.8-3.1,2.4-3.3c1.6-0.3,3.1,0.8,3.3,2.4
							C502.2,225.2,501.1,226.7,499.6,227z"/>
						<path class="st0" d="M526.3,222.5c-1.6,0.3-3.1-0.8-3.3-2.4c-0.3-1.6,0.8-3.1,2.4-3.3c1.6-0.3,3.1,0.8,3.3,2.4
							C528.9,220.7,527.9,222.2,526.3,222.5z"/>
						<path class="st0" d="M369.5,271.5c-1.6,0.3-3.1-0.8-3.3-2.4c-0.3-1.6,0.8-3.1,2.4-3.3c1.6-0.3,3.1,0.8,3.3,2.4
							C372.1,269.8,371.1,271.2,369.5,271.5z"/>
						<path class="st0" d="M396.3,267c-1.6,0.3-3.1-0.8-3.3-2.4s0.8-3.1,2.4-3.3c1.6-0.3,3.1,0.8,3.3,2.4S397.8,266.7,396.3,267z"/>
						<path class="st0" d="M423,262.5c-1.6,0.3-3.1-0.8-3.3-2.4c-0.3-1.6,0.8-3.1,2.4-3.3c1.6-0.3,3.1,0.8,3.3,2.4
							C425.6,260.7,424.6,262.2,423,262.5z"/>
						<path class="st0" d="M449.8,258c-1.6,0.3-3.1-0.8-3.3-2.4c-0.3-1.6,0.8-3.1,2.4-3.3c1.6-0.3,3.1,0.8,3.3,2.4
							C452.4,256.2,451.3,257.7,449.8,258z"/>
						<path class="st0" d="M476.5,253.5c-1.6,0.3-3.1-0.8-3.3-2.4c-0.3-1.6,0.8-3.1,2.4-3.3c1.6-0.3,3.1,0.8,3.3,2.4
							C479.1,251.7,478.1,253.2,476.5,253.5z"/>
						<path class="st0" d="M503.3,248.9c-1.6,0.3-3.1-0.8-3.3-2.4c-0.3-1.6,0.8-3.1,2.4-3.3c1.6-0.3,3.1,0.8,3.3,2.4
							C505.9,247.2,504.8,248.7,503.3,248.9z"/>
						<path class="st0" d="M530,244.4c-1.6,0.3-3.1-0.8-3.3-2.4c-0.3-1.6,0.8-3.1,2.4-3.3c1.6-0.3,3.1,0.8,3.3,2.4
							C532.6,242.7,531.6,244.2,530,244.4z"/>
						<path class="st0" d="M373.2,293.5c-1.6,0.3-3.1-0.8-3.3-2.4c-0.3-1.6,0.8-3.1,2.4-3.3c1.6-0.3,3.1,0.8,3.3,2.4
							C375.8,291.7,374.8,293.2,373.2,293.5z"/>
						<path class="st0" d="M400,289c-1.6,0.3-3.1-0.8-3.3-2.4c-0.3-1.6,0.8-3.1,2.4-3.3c1.6-0.3,3.1,0.8,3.3,2.4
							C402.6,287.2,401.5,288.7,400,289z"/>
						<path class="st0" d="M426.7,284.4c-1.6,0.3-3.1-0.8-3.3-2.4c-0.3-1.6,0.8-3.1,2.4-3.3s3.1,0.8,3.3,2.4
							C429.3,282.7,428.3,284.2,426.7,284.4z"/>
						<path class="st0" d="M453.5,279.9c-1.6,0.3-3.1-0.8-3.3-2.4c-0.3-1.6,0.8-3.1,2.4-3.3c1.6-0.3,3.1,0.8,3.3,2.4
							C456.1,278.2,455,279.7,453.5,279.9z"/>
						<path class="st0" d="M480.2,275.4c-1.6,0.3-3.1-0.8-3.3-2.4c-0.3-1.6,0.8-3.1,2.4-3.3c1.6-0.3,3.1,0.8,3.3,2.4
							C482.8,273.7,481.8,275.2,480.2,275.4z"/>
						<path class="st0" d="M507,270.9c-1.6,0.3-3.1-0.8-3.3-2.4c-0.3-1.6,0.8-3.1,2.4-3.3c1.6-0.3,3.1,0.8,3.3,2.4
							C509.6,269.2,508.5,270.6,507,270.9z"/>
						<path class="st0" d="M533.7,266.4c-1.6,0.3-3.1-0.8-3.3-2.4s0.8-3.1,2.4-3.3c1.6-0.3,3.1,0.8,3.3,2.4
							C536.3,264.7,535.3,266.1,533.7,266.4z"/>
						<path class="st0" d="M376.9,315.4c-1.6,0.3-3.1-0.8-3.3-2.4c-0.3-1.6,0.8-3.1,2.4-3.3c1.6-0.3,3.1,0.8,3.3,2.4
							C379.6,313.7,378.5,315.2,376.9,315.4z"/>
						<path class="st0" d="M403.7,310.9c-1.6,0.3-3.1-0.8-3.3-2.4c-0.3-1.6,0.8-3.1,2.4-3.3c1.6-0.3,3.1,0.8,3.3,2.4
							C406.3,309.2,405.2,310.7,403.7,310.9z"/>
						<path class="st0" d="M430.4,306.4c-1.6,0.3-3.1-0.8-3.3-2.4c-0.3-1.6,0.8-3.1,2.4-3.3c1.6-0.3,3.1,0.8,3.3,2.4
							C433.1,304.7,432,306.1,430.4,306.4z"/>
						<path class="st0" d="M457.2,301.9c-1.6,0.3-3.1-0.8-3.3-2.4c-0.3-1.6,0.8-3.1,2.4-3.3c1.6-0.3,3.1,0.8,3.3,2.4
							C459.8,300.1,458.7,301.6,457.2,301.9z"/>
						<path class="st0" d="M483.9,297.4c-1.6,0.3-3.1-0.8-3.3-2.4c-0.3-1.6,0.8-3.1,2.4-3.3c1.6-0.3,3.1,0.8,3.3,2.4
							C486.5,295.6,485.5,297.1,483.9,297.4z"/>
						<path class="st0" d="M510.7,292.9c-1.6,0.3-3.1-0.8-3.3-2.4c-0.3-1.6,0.8-3.1,2.4-3.3c1.6-0.3,3.1,0.8,3.3,2.4
							C513.3,291.1,512.2,292.6,510.7,292.9z"/>
						<path class="st0" d="M537.4,288.4c-1.6,0.3-3.1-0.8-3.3-2.4c-0.3-1.6,0.8-3.1,2.4-3.3c1.6-0.3,3.1,0.8,3.3,2.4
							C540,286.6,539,288.1,537.4,288.4z"/>
						<path class="st0" d="M380.6,337.4c-1.6,0.3-3.1-0.8-3.3-2.4c-0.3-1.6,0.8-3.1,2.4-3.3c1.6-0.3,3.1,0.8,3.3,2.4
							C383.3,335.6,382.2,337.1,380.6,337.4z"/>
						<path class="st0" d="M407.4,332.9c-1.6,0.3-3.1-0.8-3.3-2.4c-0.3-1.6,0.8-3.1,2.4-3.3c1.6-0.3,3.1,0.8,3.3,2.4
							C410,331.1,408.9,332.6,407.4,332.9z"/>
						<path class="st0" d="M434.1,328.4c-1.6,0.3-3.1-0.8-3.3-2.4c-0.3-1.6,0.8-3.1,2.4-3.3c1.6-0.3,3.1,0.8,3.3,2.4
							C436.8,326.6,435.7,328.1,434.1,328.4z"/>
						<path class="st0" d="M460.9,323.9c-1.6,0.3-3.1-0.8-3.3-2.4c-0.3-1.6,0.8-3.1,2.4-3.3c1.6-0.3,3.1,0.8,3.3,2.4
							C463.5,322.1,462.4,323.6,460.9,323.9z"/>
						<path class="st0" d="M487.6,319.3c-1.6,0.3-3.1-0.8-3.3-2.4c-0.3-1.6,0.8-3.1,2.4-3.3c1.6-0.3,3.1,0.8,3.3,2.4
							C490.3,317.6,489.2,319.1,487.6,319.3z"/>
						<path class="st0" d="M514.4,314.8c-1.6,0.3-3.1-0.8-3.3-2.4c-0.3-1.6,0.8-3.1,2.4-3.3c1.6-0.3,3.1,0.8,3.3,2.4
							C517,313.1,515.9,314.6,514.4,314.8z"/>
						<path class="st0" d="M541.1,310.3c-1.6,0.3-3.1-0.8-3.3-2.4c-0.3-1.6,0.8-3.1,2.4-3.3c1.6-0.3,3.1,0.8,3.3,2.4
							C543.8,308.6,542.7,310.1,541.1,310.3z"/>
					</g>
				</g>
			</g>
			<g>
				<g>
					<path class="st25" d="M259.5,444.9c-6.9,0-12.6-5.4-13-12.3l-6-106.6c-0.4-7.2,5.1-13.4,12.3-13.8l32.5-1.8
						c1.1-0.1,1.7-0.8,2-1.5c0.3-0.9,0.1-1.7-0.6-2.4c-3.9-3.7-6.2-8.6-6.5-13.7c-0.7-12.1,9.9-22.6,23.7-23.3c0.5,0,1.1,0,1.6,0
						c13.1,0,23.9,9,24.5,20.6c0.3,5.1-1.5,10.2-4.9,14.3c-0.6,0.7-0.7,1.6-0.3,2.4c0.3,0.6,1,1.3,2,1.3l0.1,0l32.5-1.8
						c0.2,0,0.5,0,0.7,0c6.9,0,12.6,5.4,13,12.3l1.8,31.9c0.1,1.3,1.2,2.1,2.2,2.1c0.4,0,1-0.1,1.5-0.6c3.7-3.6,8.2-5.7,13.1-6
						c0.4,0,0.7,0,1.1,0c11.7,0,21.5,10.4,22.2,23.7c0.4,6.6-1.5,13-5.4,17.9c-3.9,5-9.3,7.9-15.1,8.2c-0.4,0-0.7,0-1.1,0
						c-4.5,0-8.9-1.5-12.6-4.5c-0.4-0.3-0.9-0.5-1.3-0.5c-0.6,0-1.2,0.3-1.6,0.7c-0.3,0.3-0.6,0.9-0.6,1.7l1.8,31.9
						c0.2,3.5-1,6.8-3.3,9.4c-2.3,2.6-5.5,4.1-9,4.3l-106.6,6C260,444.9,259.7,444.9,259.5,444.9z"/>
					<g>
						<path class="st0" d="M305.5,270.2c12.6,0,23.1,8.6,23.8,19.9c0.3,5.1-1.5,9.9-4.8,13.8c-1.6,1.9-0.2,4.9,2.3,4.9
							c0.1,0,0.1,0,0.2,0l32.5-1.8c0.2,0,0.5,0,0.7,0c6.5,0,11.9,5.1,12.3,11.6l1.8,31.9c0.1,1.7,1.5,2.8,3,2.8c0.7,0,1.4-0.3,2-0.8
							c3.4-3.3,7.8-5.5,12.6-5.7c0.4,0,0.7,0,1.1,0c11.3,0,20.8,10.1,21.5,23c0.7,13.3-8.1,24.7-19.8,25.3c-0.4,0-0.7,0-1.1,0
							c-4.5,0-8.7-1.6-12.1-4.3c-0.6-0.4-1.2-0.6-1.8-0.6c-1.6,0-3.1,1.3-3,3.2l1.8,31.9c0.4,6.8-4.8,12.6-11.6,13l-106.6,6
							c-0.2,0-0.5,0-0.7,0c-6.5,0-11.9-5.1-12.3-11.6l-6-106.6c-0.4-6.8,4.8-12.6,11.6-13l32.5-1.8c2.6-0.1,3.8-3.3,1.9-5.1
							c-3.7-3.5-6-8.1-6.3-13.2c-0.7-11.7,9.6-21.8,23-22.6C304.4,270.3,304.9,270.2,305.5,270.2 M305.5,268.7L305.5,268.7
							c-0.5,0-1.1,0-1.6,0c-6.8,0.4-13.1,3.1-17.7,7.6c-4.6,4.6-7,10.4-6.7,16.5c0.3,5.3,2.7,10.3,6.8,14.2c0.6,0.6,0.4,1.4,0.4,1.6
							c-0.1,0.2-0.4,0.9-1.3,1l-32.5,1.8c-7.6,0.4-13.4,6.9-13,14.5l6,106.6c0.4,7.3,6.5,13,13.8,13c0.3,0,0.5,0,0.8,0l106.6-6
							c3.7-0.2,7.1-1.8,9.5-4.6c2.5-2.7,3.7-6.3,3.5-10l-1.8-31.9c0-0.5,0.2-0.9,0.4-1.1c0.3-0.3,0.7-0.5,1.1-0.5
							c0.3,0,0.6,0.1,0.9,0.3c3.9,3,8.4,4.6,13.1,4.6c0.4,0,0.8,0,1.1,0c6.1-0.3,11.7-3.4,15.7-8.5c4-5.1,6-11.6,5.6-18.4
							c-0.8-13.7-10.9-24.4-23-24.4c-0.4,0-0.8,0-1.1,0c-5.1,0.3-9.8,2.4-13.6,6.2c-0.4,0.3-0.7,0.4-1,0.4c-0.7,0-1.4-0.5-1.5-1.4
							l-1.8-31.9c-0.4-7.3-6.5-13-13.8-13c-0.3,0-0.5,0-0.8,0l-32.5,1.8c0,0-0.1,0-0.1,0c-0.9,0-1.2-0.7-1.3-0.9
							c-0.1-0.3-0.3-0.9,0.2-1.6c3.6-4.3,5.4-9.5,5.1-14.8C330.1,278.1,319,268.7,305.5,268.7L305.5,268.7L305.5,268.7z"/>
					</g>
				</g>
				<g>
					<defs>
						<path id="SVGID_7_" d="M391.8,346.7c-4.9,0.3-9.2,2.4-12.6,5.7c-1.8,1.8-4.9,0.6-5-2l-1.8-31.9c-0.4-6.8-6.2-12-13-11.6
							l-32.5,1.8c-2.6,0.1-4.1-2.9-2.5-4.9c3.2-3.9,5.1-8.7,4.8-13.8c-0.7-11.7-12-20.6-25.3-19.8c-13.3,0.7-23.6,10.8-23,22.6
							c0.3,5.1,2.6,9.7,6.3,13.2c1.9,1.8,0.7,5-1.9,5.1l-32.5,1.8c-6.8,0.4-12,6.2-11.6,13l6,106.6c0.4,6.8,6.2,12,13,11.6l106.6-6
							c6.8-0.4,12-6.2,11.6-13l-1.8-31.9c-0.1-2.5,2.8-4.1,4.8-2.5c3.7,2.9,8.3,4.6,13.2,4.3c11.7-0.7,20.6-12,19.8-25.3
							C413.6,356.3,403.5,346.1,391.8,346.7z"/>
					</defs>
					<clipPath id="SVGID_8_">
						<use xlink:href="#SVGID_7_"  style="overflow:visible;"/>
					</clipPath>
					<g class="st26">
						<path class="st0" d="M184.5,400.9c-1.5,0.4-3.1-0.6-3.5-2.1c-0.4-1.5,0.6-3.1,2.1-3.5c1.5-0.4,3.1,0.6,3.5,2.1
							C187,398.9,186,400.5,184.5,400.9z"/>
						<path class="st0" d="M210.8,394.3c-1.5,0.4-3.1-0.6-3.5-2.1c-0.4-1.5,0.6-3.1,2.1-3.5c1.5-0.4,3.1,0.6,3.5,2.1
							C213.3,392.4,212.3,393.9,210.8,394.3z"/>
						<path class="st0" d="M237.1,387.8c-1.5,0.4-3.1-0.6-3.5-2.1c-0.4-1.5,0.6-3.1,2.1-3.5c1.5-0.4,3.1,0.6,3.5,2.1
							C239.6,385.8,238.7,387.4,237.1,387.8z"/>
						<path class="st0" d="M263.4,381.2c-1.5,0.4-3.1-0.6-3.5-2.1c-0.4-1.5,0.6-3.1,2.1-3.5c1.5-0.4,3.1,0.6,3.5,2.1
							C265.9,379.2,265,380.8,263.4,381.2z"/>
						<path class="st0" d="M289.8,374.6c-1.5,0.4-3.1-0.6-3.5-2.1c-0.4-1.5,0.6-3.1,2.1-3.5c1.5-0.4,3.1,0.6,3.5,2.1
							C292.2,372.7,291.3,374.2,289.8,374.6z"/>
						<path class="st0" d="M316.1,368.1c-1.5,0.4-3.1-0.6-3.5-2.1c-0.4-1.5,0.6-3.1,2.1-3.5c1.5-0.4,3.1,0.6,3.5,2.1
							C318.6,366.1,317.6,367.7,316.1,368.1z"/>
						<path class="st0" d="M342.4,361.5c-1.5,0.4-3.1-0.6-3.5-2.1c-0.4-1.5,0.6-3.1,2.1-3.5c1.5-0.4,3.1,0.6,3.5,2.1
							C344.9,359.5,343.9,361.1,342.4,361.5z"/>
						<path class="st0" d="M189.9,422.5c-1.5,0.4-3.1-0.6-3.5-2.1c-0.4-1.5,0.6-3.1,2.1-3.5c1.5-0.4,3.1,0.6,3.5,2.1
							C192.4,420.6,191.4,422.1,189.9,422.5z"/>
						<path class="st0" d="M216.2,415.9c-1.5,0.4-3.1-0.6-3.5-2.1c-0.4-1.5,0.6-3.1,2.1-3.5c1.5-0.4,3.1,0.6,3.5,2.1
							C218.7,414,217.7,415.5,216.2,415.9z"/>
						<path class="st0" d="M242.5,409.4c-1.5,0.4-3.1-0.6-3.5-2.1c-0.4-1.5,0.6-3.1,2.1-3.5c1.5-0.4,3.1,0.6,3.5,2.1
							C245,407.4,244.1,409,242.5,409.4z"/>
						<path class="st0" d="M268.8,402.8c-1.5,0.4-3.1-0.6-3.5-2.1c-0.4-1.5,0.6-3.1,2.1-3.5c1.5-0.4,3.1,0.6,3.5,2.1
							C271.3,400.9,270.4,402.4,268.8,402.8z"/>
						<path class="st0" d="M295.2,396.2c-1.5,0.4-3.1-0.6-3.5-2.1c-0.4-1.5,0.6-3.1,2.1-3.5c1.5-0.4,3.1,0.6,3.5,2.1
							C297.6,394.3,296.7,395.9,295.2,396.2z"/>
						<path class="st0" d="M321.5,389.7c-1.5,0.4-3.1-0.6-3.5-2.1c-0.4-1.5,0.6-3.1,2.1-3.5c1.5-0.4,3.1,0.6,3.5,2.1
							C324,387.7,323,389.3,321.5,389.7z"/>
						<path class="st0" d="M347.8,383.1c-1.5,0.4-3.1-0.6-3.5-2.1c-0.4-1.5,0.6-3.1,2.1-3.5c1.5-0.4,3.1,0.6,3.5,2.1
							C350.3,381.2,349.3,382.7,347.8,383.1z"/>
						<path class="st0" d="M195.3,444.1c-1.5,0.4-3.1-0.6-3.5-2.1c-0.4-1.5,0.6-3.1,2.1-3.5c1.5-0.4,3.1,0.6,3.5,2.1
							C197.7,442.2,196.8,443.7,195.3,444.1z"/>
						<path class="st0" d="M221.6,437.5c-1.5,0.4-3.1-0.6-3.5-2.1c-0.4-1.5,0.6-3.1,2.1-3.5c1.5-0.4,3.1,0.6,3.5,2.1
							C224.1,435.6,223.1,437.2,221.6,437.5z"/>
						<path class="st0" d="M247.9,431c-1.5,0.4-3.1-0.6-3.5-2.1c-0.4-1.5,0.6-3.1,2.1-3.5c1.5-0.4,3.1,0.6,3.5,2.1
							C250.4,429,249.4,430.6,247.9,431z"/>
						<path class="st0" d="M274.2,424.4c-1.5,0.4-3.1-0.6-3.5-2.1c-0.4-1.5,0.6-3.1,2.1-3.5c1.5-0.4,3.1,0.6,3.5,2.1
							C276.7,422.5,275.8,424,274.2,424.4z"/>
						<path class="st0" d="M300.5,417.8c-1.5,0.4-3.1-0.6-3.5-2.1c-0.4-1.5,0.6-3.1,2.1-3.5c1.5-0.4,3.1,0.6,3.5,2.1
							C303,415.9,302.1,417.5,300.5,417.8z"/>
						<path class="st0" d="M326.9,411.3c-1.5,0.4-3.1-0.6-3.5-2.1c-0.4-1.5,0.6-3.1,2.1-3.5c1.5-0.4,3.1,0.6,3.5,2.1
							C329.3,409.3,328.4,410.9,326.9,411.3z"/>
						
							<ellipse transform="matrix(0.5116 -0.8592 0.8592 0.5116 -173.1871 499.1499)" class="st0" cx="352.5" cy="401.9" rx="2.9" ry="2.9"/>
						<path class="st0" d="M200.7,465.7c-1.5,0.4-3.1-0.6-3.5-2.1c-0.4-1.5,0.6-3.1,2.1-3.5c1.5-0.4,3.1,0.6,3.5,2.1
							C203.1,463.8,202.2,465.3,200.7,465.7z"/>
						<path class="st0" d="M227,459.2c-1.5,0.4-3.1-0.6-3.5-2.1c-0.4-1.5,0.6-3.1,2.1-3.5c1.5-0.4,3.1,0.6,3.5,2.1
							C229.5,457.2,228.5,458.8,227,459.2z"/>
						<path class="st0" d="M253.3,452.6c-1.5,0.4-3.1-0.6-3.5-2.1c-0.4-1.5,0.6-3.1,2.1-3.5c1.5-0.4,3.1,0.6,3.5,2.1
							C255.8,450.6,254.8,452.2,253.3,452.6z"/>
						<path class="st0" d="M279.6,446c-1.5,0.4-3.1-0.6-3.5-2.1c-0.4-1.5,0.6-3.1,2.1-3.5c1.5-0.4,3.1,0.6,3.5,2.1
							C282.1,444.1,281.2,445.6,279.6,446z"/>
						<path class="st0" d="M305.9,439.5c-1.5,0.4-3.1-0.6-3.5-2.1c-0.4-1.5,0.6-3.1,2.1-3.5c1.5-0.4,3.1,0.6,3.5,2.1
							C308.4,437.5,307.5,439.1,305.9,439.5z"/>
						<path class="st0" d="M332.3,432.9c-1.5,0.4-3.1-0.6-3.5-2.1c-0.4-1.5,0.6-3.1,2.1-3.5s3.1,0.6,3.5,2.1
							C334.7,430.9,333.8,432.5,332.3,432.9z"/>
						
							<ellipse transform="matrix(0.5116 -0.8592 0.8592 0.5116 -189.1216 514.3353)" class="st0" cx="357.9" cy="423.5" rx="2.9" ry="2.9"/>
						<path class="st0" d="M206,487.3c-1.5,0.4-3.1-0.6-3.5-2.1c-0.4-1.5,0.6-3.1,2.1-3.5c1.5-0.4,3.1,0.6,3.5,2.1
							C208.5,485.4,207.6,486.9,206,487.3z"/>
						<path class="st0" d="M232.4,480.8c-1.5,0.4-3.1-0.6-3.5-2.1c-0.4-1.5,0.6-3.1,2.1-3.5c1.5-0.4,3.1,0.6,3.5,2.1
							C234.8,478.8,233.9,480.4,232.4,480.8z"/>
						<path class="st0" d="M258.7,474.2c-1.5,0.4-3.1-0.6-3.5-2.1c-0.4-1.5,0.6-3.1,2.1-3.5c1.5-0.4,3.1,0.6,3.5,2.1
							C261.2,472.3,260.2,473.8,258.7,474.2z"/>
						<path class="st0" d="M285,467.6c-1.5,0.4-3.1-0.6-3.5-2.1c-0.4-1.5,0.6-3.1,2.1-3.5c1.5-0.4,3.1,0.6,3.5,2.1
							C287.5,465.7,286.5,467.2,285,467.6z"/>
						<path class="st0" d="M311.3,461.1c-1.5,0.4-3.1-0.6-3.5-2.1c-0.4-1.5,0.6-3.1,2.1-3.5c1.5-0.4,3.1,0.6,3.5,2.1
							C313.8,459.1,312.9,460.7,311.3,461.1z"/>
						
							<ellipse transform="matrix(0.6078 -0.7941 0.7941 0.6078 -226.5439 444.7559)" class="st0" cx="337" cy="451.7" rx="2.9" ry="2.9"/>
						<path class="st0" d="M364,447.9c-1.5,0.4-3.1-0.6-3.5-2.1c-0.4-1.5,0.6-3.1,2.1-3.5c1.5-0.4,3.1,0.6,3.5,2.1
							C366.5,446,365.5,447.5,364,447.9z"/>
						<path class="st0" d="M211.4,508.9c-1.5,0.4-3.1-0.6-3.5-2.1c-0.4-1.5,0.6-3.1,2.1-3.5c1.5-0.4,3.1,0.6,3.5,2.1
							C213.9,507,213,508.6,211.4,508.9z"/>
						<path class="st0" d="M237.8,502.4c-1.5,0.4-3.1-0.6-3.5-2.1c-0.4-1.5,0.6-3.1,2.1-3.5c1.5-0.4,3.1,0.6,3.5,2.1
							C240.2,500.4,239.3,502,237.8,502.4z"/>
						<path class="st0" d="M264.1,495.8c-1.5,0.4-3.1-0.6-3.5-2.1c-0.4-1.5,0.6-3.1,2.1-3.5c1.5-0.4,3.1,0.6,3.5,2.1
							C266.6,493.9,265.6,495.4,264.1,495.8z"/>
						<path class="st0" d="M290.4,489.2c-1.5,0.4-3.1-0.6-3.5-2.1c-0.4-1.5,0.6-3.1,2.1-3.5c1.5-0.4,3.1,0.6,3.5,2.1
							C292.9,487.3,291.9,488.9,290.4,489.2z"/>
						<path class="st0" d="M316.7,482.7c-1.5,0.4-3.1-0.6-3.5-2.1c-0.4-1.5,0.6-3.1,2.1-3.5c1.5-0.4,3.1,0.6,3.5,2.1
							C319.2,480.7,318.3,482.3,316.7,482.7z"/>
						<path class="st0" d="M343,476.1c-1.5,0.4-3.1-0.6-3.5-2.1c-0.4-1.5,0.6-3.1,2.1-3.5c1.5-0.4,3.1,0.6,3.5,2.1
							C345.5,474.2,344.6,475.7,343,476.1z"/>
						<path class="st0" d="M369.4,469.5c-1.5,0.4-3.1-0.6-3.5-2.1c-0.4-1.5,0.6-3.1,2.1-3.5c1.5-0.4,3.1,0.6,3.5,2.1
							C371.8,467.6,370.9,469.2,369.4,469.5z"/>
						<path class="st0" d="M216.8,530.5c-1.5,0.4-3.1-0.6-3.5-2.1c-0.4-1.5,0.6-3.1,2.1-3.5c1.5-0.4,3.1,0.6,3.5,2.1
							C219.3,528.6,218.4,530.2,216.8,530.5z"/>
						<path class="st0" d="M243.1,524c-1.5,0.4-3.1-0.6-3.5-2.1c-0.4-1.5,0.6-3.1,2.1-3.5c1.5-0.4,3.1,0.6,3.5,2.1
							C245.6,522,244.7,523.6,243.1,524z"/>
						<path class="st0" d="M269.5,517.4c-1.5,0.4-3.1-0.6-3.5-2.1c-0.4-1.5,0.6-3.1,2.1-3.5c1.5-0.4,3.1,0.6,3.5,2.1
							C271.9,515.5,271,517,269.5,517.4z"/>
						<path class="st0" d="M295.8,510.9c-1.5,0.4-3.1-0.6-3.5-2.1c-0.4-1.5,0.6-3.1,2.1-3.5c1.5-0.4,3.1,0.6,3.5,2.1
							C298.3,508.9,297.3,510.5,295.8,510.9z"/>
						<path class="st0" d="M322.1,504.3c-1.5,0.4-3.1-0.6-3.5-2.1c-0.4-1.5,0.6-3.1,2.1-3.5s3.1,0.6,3.5,2.1
							C324.6,502.3,323.7,503.9,322.1,504.3z"/>
						
							<ellipse transform="matrix(0.5116 -0.8592 0.8592 0.5116 -255.4212 540.483)" class="st0" cx="347.7" cy="494.9" rx="2.9" ry="2.9"/>
						<path class="st0" d="M374.8,491.2c-1.5,0.4-3.1-0.6-3.5-2.1c-0.4-1.5,0.6-3.1,2.1-3.5c1.5-0.4,3.1,0.6,3.5,2.1
							C377.2,489.2,376.3,490.8,374.8,491.2z"/>
						<path class="st0" d="M222.2,552.2c-1.5,0.4-3.1-0.6-3.5-2.1c-0.4-1.5,0.6-3.1,2.1-3.5c1.5-0.4,3.1,0.6,3.5,2.1
							C224.7,550.2,223.8,551.8,222.2,552.2z"/>
						<path class="st0" d="M248.5,545.6c-1.5,0.4-3.1-0.6-3.5-2.1c-0.4-1.5,0.6-3.1,2.1-3.5c1.5-0.4,3.1,0.6,3.5,2.1
							C251,543.6,250.1,545.2,248.5,545.6z"/>
						<circle class="st0" cx="274.2" cy="536.2" r="2.9"/>
						<path class="st0" d="M301.2,532.5c-1.5,0.4-3.1-0.6-3.5-2.1c-0.4-1.5,0.6-3.1,2.1-3.5c1.5-0.4,3.1,0.6,3.5,2.1
							C303.7,530.5,302.7,532.1,301.2,532.5z"/>
						
							<ellipse transform="matrix(0.5116 -0.8592 0.8592 0.5116 -289.8518 536.2598)" class="st0" cx="326.8" cy="523.1" rx="2.9" ry="2.9"/>
						<path class="st0" d="M353.8,519.3c-1.5,0.4-3.1-0.6-3.5-2.1c-0.4-1.5,0.6-3.1,2.1-3.5c1.5-0.4,3.1,0.6,3.5,2.1
							C356.3,517.4,355.4,518.9,353.8,519.3z"/>
						<path class="st0" d="M380.1,512.8c-1.5,0.4-3.1-0.6-3.5-2.1c-0.4-1.5,0.6-3.1,2.1-3.5c1.5-0.4,3.1,0.6,3.5,2.1
							C382.6,510.8,381.7,512.4,380.1,512.8z"/>
					</g>
				</g>
			</g>
		</g>
		<g>
			<g>
				<path class="st6" d="M115.3,292.3c0,0-1,43.7-3.7,58.7c-3,16.8-28,50.7-28,50.7l5.8,5.7l8.6,4.1c0,0,21.9-20.9,34.2-47.1
					c10.7-22.7,11.2-69.8,11.2-69.8"/>
				<g>
					<g>
						<path class="st13" d="M109.1,425.5c0.3-1,0.4-2.3,0-2.9l-8.9-13.1c-8.5-1.6-16-9.3-16-9.3l-7.5,8.3c-0.2,0.3-0.1,0.7,0.2,0.9
							l30,18.9C107.6,428.7,109.1,425.5,109.1,425.5z"/>
						<path class="st27" d="M102.5,411.7c-1.3,0.5-2.5,1.1-3.6,1.8"/>
						<path class="st27" d="M103.5,413.7c-1.3,0.5-2,0.9-3,1.6"/>
						<path class="st27" d="M104.4,415.2c-0.9,0.3-1.9,0.9-2.8,1.4"/>
					</g>
					<line class="st27" x1="77.9" y1="407.2" x2="108.6" y2="426.5"/>
					<path class="st27" d="M81.6,403.2c0,0,7.1,4.7,5,9.5"/>
					<path class="st27" d="M107.3,420c0,0-3.8,1.6-5,2.6"/>
				</g>
			</g>
			<g>
				<path class="st6" d="M147.4,310.5c0,0,1.7,25.5,2.8,45.1c1.2,19.5,3.4,64.1,3.4,64.1l8.5,2l9.4-1.6c0,0,2.4-38.5,2.4-64
					c0-26.4-1-63.8-1-63.8"/>
				<g>
					<g>
						<path class="st13" d="M188.2,427c-0.3-1-0.9-2.2-1.5-2.4l-14.6-6.3c-8,3.3-18.4,0.8-18.4,0.8l-1.9,11c0,0.4,0.3,0.7,0.7,0.7
							l35.5-0.2C188.6,430.5,188.2,427,188.2,427z"/>
						<path class="st27" d="M175.2,418.9c-0.8,1.1-1.5,2.2-2.1,3.5"/>
						<path class="st27" d="M177.1,420c-0.8,1.2-1.2,1.8-1.7,2.9"/>
						<path class="st27" d="M178.6,420.8c-0.6,0.8-1.1,1.8-1.6,2.7"/>
					</g>
					<line class="st27" x1="152" y1="428.3" x2="188.3" y2="428.1"/>
					<path class="st27" d="M153,422.9c0,0,8.5,0.2,9.3,5.3"/>
					<path class="st27" d="M183.7,423.3c0,0-2.4,3.3-2.8,4.9"/>
				</g>
			</g>
			<g>
				<path class="st28" d="M146.8,166c-4.6-1-8.9,2-11,5.2c-0.6,1-1.1,2.1-1.9,3.1c-4.6,6-23,4.2-19.3,16.1c0.4,1.4,1.2,2.6,1.3,4.1
					c0.1,1.8-0.8,3.5-1.3,5.2c-1.6,5.6,2.3,12.1,8,13.3c2.5,0.5,5.4,0.2,7.6,1.6c2.1,1.3,3,3.8,4.4,5.7c4,5.3,11.9,6.4,18.1,4.1
					c2.4-0.9,4.7-2.3,5.7-4.6c0.6-1.3,0.7-2.8,1.4-4c1.4-2.4,4.6-2.7,7-4.1c3.4-2,5.5-6.6,3.9-10.3c-1.6-3.8-5-7.3-5.8-11.4
					c-0.4-2.3,0.2-4.7-0.3-6.9c-0.3-1.7-1.3-3.2-2.6-4.3c-0.9-0.7-2-1.2-2.9-2c-1.9-1.6-2.2-4.4-4.2-6c-2-1.6-4.6-2.2-6.7-3.5"/>
			</g>
			<path class="st6" d="M155.2,194.1c11.6-3.2,28.7-2.6,42.3-16c13.6-13.5,19.4-23.7,19.4-23.7l10.5,8.3c0,0-13.8,26.4-26,35.3
				c-16.1,11.7-27.1,13.5-36.4,15.2"/>
			<g>
				<path class="st6" d="M214,158.7c2.9-4.4,9.8-17,10.8-16.8c1,0.1-1.3,4.5-0.4,4.5c0.8,0,4.7-6.6,5.6-6.2c1.3,0.5-3.1,7-3.1,7
					s1.1-1.2,2.1-0.4c0.7,0.6-0.1,2.5-0.1,2.5s1.3-1.3,2-0.7c0.7,0.6-0.2,2.9-0.2,2.9s1-0.5,1.6,0c0.7,0.5-2.7,8.3-9.1,18.5"/>
			</g>
			<path class="st10" d="M223.4,148.1c0,0-0.2,2.3,0,3.8c0.3,2.5-0.5,3.8-0.5,3.8"/>
			<g>
				<path class="st29" d="M226.6,147.8c-0.3,0.7-0.5,1.5-0.8,2.2c-0.1,0.4-0.2,0.8-0.3,1.1c-0.1,0.4-0.1,0.8-0.1,1.1
					c0.1,0.2,0.1,0.2,0.2,0.2c0.1,0,0.3-0.1,0.4-0.1c0.3-0.2,0.6-0.4,0.8-0.7c0.5-0.6,1-1.1,1.5-1.8c0.1-0.1,0.3-0.2,0.5-0.1
					c0.1,0.1,0.2,0.3,0.1,0.4l0,0c-0.4,0.7-0.7,1.4-1,2.1c-0.1,0.4-0.3,0.7-0.4,1.1c-0.1,0.3-0.2,0.7-0.1,1c0,0.1,0,0.1,0.1,0.1
					c0.1,0,0.2,0,0.4-0.1c0.3-0.1,0.6-0.4,0.8-0.6c0.5-0.5,1-1.2,1.3-1.8l0,0c0.1-0.2,0.3-0.2,0.4-0.1c0.1,0.1,0.2,0.3,0.1,0.4
					c-0.3,0.6-0.6,1.3-0.9,1.9c-0.3,0.6-0.5,1.3-0.6,2c0,0.2,0,0.3,0,0.4c0,0.1,0.1,0.1,0.2,0.1c0.3-0.1,0.6-0.3,0.8-0.5
					c0.5-0.5,1-1,1.4-1.6c-0.3,0.6-0.7,1.2-1.2,1.8c-0.3,0.3-0.5,0.5-0.9,0.7c-0.1,0-0.2,0-0.4,0c-0.1,0-0.3-0.1-0.3-0.3
					c-0.1-0.2-0.1-0.4-0.1-0.6c0.1-0.8,0.3-1.5,0.5-2.1c0.2-0.7,0.5-1.3,0.8-2l0.6,0.3c-0.4,0.7-0.8,1.4-1.4,2
					c-0.3,0.3-0.6,0.6-1,0.8c-0.2,0.1-0.5,0.2-0.8,0.2c-0.1,0-0.3-0.1-0.5-0.2c-0.1-0.1-0.2-0.3-0.2-0.4c-0.1-0.5,0-0.9,0.2-1.3
					c0.1-0.4,0.3-0.8,0.4-1.1c0.3-0.7,0.7-1.4,1.1-2.1l0.6,0.4c-0.5,0.6-1,1.3-1.6,1.8c-0.3,0.3-0.6,0.5-1,0.7
					c-0.2,0.1-0.4,0.2-0.7,0.2c-0.1,0-0.3-0.1-0.4-0.2c-0.1-0.1-0.1-0.3-0.2-0.4c-0.1-0.9,0.3-1.6,0.5-2.4
					C225.8,149.2,226.2,148.5,226.6,147.8z"/>
			</g>
			<g>
				<path class="st28" d="M141.8,168.1"/>
			</g>
			<g>
				<path class="st28" d="M144.1,167c-0.5-0.3-1.3-0.2-1.7-0.6c-0.8-0.7-0.8-1.9-0.5-2.8c0.5-1.5,2.4-2.1,3.8-1.9
					c3.4,0.5,2.9,3.8,0.8,5"/>
			</g>
			<g>
				<path class="st30" d="M125.2,250.1c0,0-12.3,13.1-14.6,30.9s-2.4,46.9-2.4,46.9s35.4,6.5,67.5-0.7c-1.2-14.8,0-56.3-11.2-77.1"
					/>
				<path class="st31" d="M114.7,328.9c0,0-1.1-44.8,4.1-59.9c4.1-11.9,13-23.3,13-23.3"/>
			</g>
			<g>
				<path class="st32" d="M176.2,190.8l4.2,20c0,0-8.2,3.3-16.7,3.8c-4.6-0.1-11.5-17.9-8.9-21.3C162.5,191,176.2,190.8,176.2,190.8
					z"/>
				<path class="st32" d="M124.4,213.2c0,0-0.6,23.4,0.8,36.9c19.7,4.4,39.3,0,39.3,0l1.4-21.3c9.9-10.1,1.2-23.2,1.2-23.2
					l-12.2-12.4l-12.2-0.7L124.4,213.2z"/>
				<path class="st32" d="M142.7,192.6c0,0-10.9-1.7-21.3,6.9c-2.4,1.9-5.3,6-7.7,10.9l16.9,11.1l10-11.1"/>
				<path class="st27" d="M170.2,213.7c-0.8-3.1-3.1-8.1-3.1-11.1"/>
				<line class="st27" x1="173" y1="190.9" x2="177.8" y2="211.7"/>
				<line class="st27" x1="115" y1="207.6" x2="127.3" y2="215.3"/>
			</g>
			<g>
				<path class="st6" d="M155.8,170.9c0,0,4.5,11.7,1.1,15.2c-1.7,1.8-7.8,0.8-10.1-0.9c-1.7-1.3-3.9-9.1-3-10.5
					C147.3,169,155.8,170.9,155.8,170.9z"/>
				<path class="st6" d="M143.1,181.1l-0.5,11.5c0.9,2.9,10.7,5.6,12.2,0.7l-1-8.6L143.1,181.1z"/>
				<g>
					<path class="st28" d="M138,179.8c-0.4-1.1-0.5-2.3-0.5-3.4c0-1.5,0.2-2.9,0.7-4.3c0.8-2.3,2.6-4.3,4.9-5.4
						c2.3-1.1,6.6-2.1,10.1,0c1.8-0.2,3.7,0.3,5,1.5c1.3,1.2,2,3.2,1.5,4.9c-3.3-0.4-6.6-0.8-10-1.1c-0.7,1.8-1.9,3.4-3.5,4.5
						c-1.5,1.1-3.2,2.4-2.6,4.5c0.3,0.9-0.7,1.1-0.7,2.8c-1.8-0.2-4.4-2.7-4.8-3.8C138,179.9,138,179.8,138,179.8z"/>
				</g>
				<path class="st6" d="M144.6,179.3c-1.1-1.6-2.1-1.5-2.7-0.7c-0.8,1,0.4,3.5,1,4c1.3,0.9,2.4,0.9,2.6-0.1"/>
				<path class="st10" d="M154.2,187.4c-4.3,0.2-7.4-2.2-7.4-2.2"/>
				<path class="st12" d="M153.3,176.8c0,0,2.9,2.5,2.8,3.3c-0.1,0.8-1.9,1.1-1.9,1.1"/>
				<path class="st0" d="M156.4,181.8l-4.8,1.3c0,0,1.3,2.4,3.9,1.5C157.3,184,156.4,181.8,156.4,181.8z"/>
				<g>
					<g>
						<path class="st13" d="M155.3,175.8c0.1,0.2,0.1,0.4,0.2,0.6c0.2,0.5,1,0.2,0.7-0.3c-0.1-0.2-0.2-0.4-0.3-0.6
							C155.8,175.3,155.2,175.5,155.3,175.8L155.3,175.8z"/>
					</g>
				</g>
				<path class="st14" d="M154.2,174.7c0,0,0.6-1.1,1.8-0.5"/>
				<g>
					<g>
						<path class="st13" d="M149.9,177.9c0,0.2,0.1,0.4,0.2,0.6c0.2,0.5,0.9,0.3,0.8-0.2c-0.1-0.2-0.2-0.5-0.3-0.7
							C150.4,177.3,149.8,177.5,149.9,177.9L149.9,177.9z"/>
					</g>
				</g>
				<path class="st14" d="M150.5,175.7c0,0-1.3-0.3-2.3,1.3"/>
			</g>
			<g>
				<path class="st6" d="M113.6,210.4c-5.3,10.6-8.5,26.1,2.6,30.9c11.6,4.9,42-32.3,42-32.3l-9.4-8.1L123.7,217"/>
				<line class="st10" x1="123.7" y1="217" x2="116.1" y2="222.9"/>
				<g>
					<path class="st30" d="M158.2,204L158.2,204c-1.5-0.3-2.5-1.7-2.2-3.3l2-10.8l5.5,1l-2,10.8C161.2,203.3,159.7,204.3,158.2,204z
						"/>
					<g>
						<path class="st33" d="M164.3,193.3l-4.4-1.1c-3.1-0.8-5.1-3.9-4.3-7.1l0,0c0.8-3.1,3.9-5.1,7.1-4.3l4.4,1.1
							c0.3,0.1,0.4,0.3,0.4,0.6l-2.5,10.4C164.9,193.2,164.6,193.4,164.3,193.3z"/>
						<path class="st34" d="M167.6,188.1c-0.8,3.1-2.2,5.5-3.3,5.2c-1.1-0.3-1.3-3-0.5-6.1c0.8-3.1,2.2-5.5,3.3-5.2
							C168.2,182.2,168.4,185,167.6,188.1z"/>
						<g>
							<path class="st30" d="M178.1,203.1c0,0-8.1-6.9-12.9-9.8c-1.5-1.2-1-4.1-0.6-5.7c1.1-4.1,2.5-4.6,2.5-4.6
								c6.5,0.5,16.7-2.6,16.7-2.6"/>
							<path class="st34" d="M178.6,190.8c-1.8,7.1-1.6,13.2,0.4,13.7c2,0.5,5.1-4.8,6.9-11.9c1.8-7.1,1.6-13.2-0.4-13.7
								S180.4,183.7,178.6,190.8z"/>
							<g>
								<path class="st33" d="M179.8,191.1c-1.5,6-1.5,11.1,0,11.5c1.5,0.4,4-4.2,5.5-10.1c1.5-6,1.5-11.1,0-11.5
									C183.7,180.6,181.3,185.1,179.8,191.1z"/>
								<path class="st30" d="M182.5,194.5c-1.4-0.3-2.6-0.2-3.4-0.1c0.2-1.1,0.4-2.2,0.7-3.3c0.3-1.2,0.6-2.3,1-3.3
									c0.6,0.5,1.6,1.2,3,1.5L182.5,194.5z"/>
								<path class="st28" d="M182.4,191.7c-0.4,1.4-0.3,2.7,0,2.8c0.4,0.1,1-1,1.4-2.4c0.4-1.4,0.3-2.7,0-2.8
									C183.4,189.2,182.8,190.3,182.4,191.7z"/>
							</g>
						</g>
					</g>
				</g>
				<g>
					<path class="st6" d="M144.2,203.8c6.3-4.1,10.7-6.5,11.4-6.8c2.5-1.1,5.2-0.7,7.2,0.1c0.7,0.3,1.3,0.7,1.7,1.2
						c0.5,0.7,0.8,1.6,0.7,2.5c0,0.2,0,0.3-0.2,0.4c-0.3,0.2-0.6-0.3-0.8-0.6c-0.5-0.8-1.3-1.2-2.3-1.2c0.5,0,0.7,0.5,0.9,0.9
						c0.2,0.4,0,1.1-0.5,1.1c0.4,0.1,0.8,0.5,0.9,0.9c0.1,0.4-0.2,0.9-0.6,1.1c0.3,0.1,0.5,0.5,0.4,0.8c0,0.3-0.2,0.6-0.4,0.8
						c-0.9,1.1-1.9,2.1-3,3c-3.4,2.9-10.3,10.8-10.3,10.8"/>
				</g>
			</g>
		</g>
		<g>
			<g>
				<g>
					<g>
						<path class="st6" d="M182.4,425.4l-28.3-2.1l-9.3,1l0.2,35.2c0,0.9,0.7,1.6,1.6,1.6l0,0c0.7,0,1.3-0.4,1.5-1l7.2-15.7
							l29.5,3.5"/>
						<path class="st32" d="M145.4,462.6c1.2-0.4,2.5-1.1,2.8-1.7l7.2-16.7c-3.7-9.2-0.9-21.1-0.9-21.1l-12.5-0.9
							c-0.4,0-0.7,0.3-0.7,0.8l0.2,39.3C141.4,463.2,145.4,462.6,145.4,462.6z"/>
						<path class="st27" d="M154.6,447.8c-1.2-0.9-2.5-1.7-3.9-2.3"/>
						<path class="st27" d="M153.4,449.9c-1.3-1-2.1-1.4-3.4-1.9"/>
						<path class="st27" d="M152.5,451.7c-0.9-0.7-2.1-1.3-3.1-1.8"/>
					</g>
					<line class="st27" x1="143.9" y1="422.5" x2="144.1" y2="462.8"/>
					<path class="st27" d="M149.9,422.8c0,0-0.1,9.3-5.9,10.2"/>
					<path class="st27" d="M149.6,457.5c0,0-3.8-2.7-5.6-3.2"/>
				</g>
				<path class="st35" d="M231.9,367.3c0.4,0.9,5.7,38.2,9.5,64.3c2.4,16.3,2.7,26.6-21.1,24.7c-32.7-2.7-55.5-4.2-55.5-4.2
					l-0.8-29.3l44.9,2.1l-5.9-29c0,0-10.9-14.5-2.9-31.1"/>
				<line class="st36" x1="168.9" y1="423" x2="170.1" y2="452.1"/>
				<path class="st36" d="M224,386.6l7.9,45.9c0.2,1.3-0.9,2.3-2.1,2.3l-65.6-4"/>
				<g>
					<g>
						<path class="st6" d="M265.8,421.6l-6,28.3l-0.2,9.3L296,459c0.9,0,1.6-0.7,1.6-1.6l0,0c0-0.7-0.4-1.3-1-1.5l-15.7-7.2
							l7.4-29.5"/>
						<path class="st32" d="M299.2,458.6c-0.4-1.2-1.1-2.5-1.7-2.8l-16.7-7.2c-9.2,3.7-21.1,0.9-21.1,0.9l-2.1,12.5
							c0,0.4,0.3,0.7,0.8,0.7l40.6-0.2C299.7,462.6,299.2,458.6,299.2,458.6z"/>
						<path class="st27" d="M284.4,449.4c-0.9,1.2-1.7,2.5-2.3,3.9"/>
						<path class="st27" d="M286.5,450.6c-1,1.3-1.4,2.1-1.9,3.4"/>
						<path class="st27" d="M288.3,451.5c-0.7,0.9-1.3,2.1-1.8,3.1"/>
					</g>
					<line class="st27" x1="257.8" y1="460.1" x2="299.4" y2="459.9"/>
					<path class="st27" d="M259,454c0,0,9.8,0.2,10.6,6.1"/>
					<path class="st27" d="M294,454.4c0,0-2.7,3.8-3.2,5.6"/>
				</g>
				<path class="st35" d="M247.1,358.7l2.1,8.2c0.3,1.2,1.3,2,2.6,2h28.2c6.9,0,14.2,0.2,18.1,6.2c3.2,4.9,2.1,13.1-0.6,22.5
					c-2.3,8.1-10.5,44.7-10.5,44.7h-29l8.2-43.8h-33.5c0,0-21.7,0.2-18.7-21.5"/>
				<line class="st36" x1="258.7" y1="437.7" x2="287.8" y2="437.7"/>
				<path class="st36" d="M236.6,398.4h-4c0,0-20.8,0-21-21.5"/>
				<path class="st36" d="M234.3,365.7c0,0,0.5,24.3,21,24.3h15.4c1.9,0,3.3,1.8,2.9,3.6l-10.1,48.5"/>
				<path class="st36" d="M236.3,375.8c0.2,0.4,8.6-1.9,8.4-10.1"/>
				<path class="st36" d="M218.6,379.2c0,0,4.4,0,8.4-1.2"/>
				<path class="st36" d="M197.4,379.2c0,0,4.1,0.1,7.2,0"/>
			</g>
			<g>
				<path class="st6" d="M222.1,277.7c0,0,10-31.1,28.7-56.2l-12.8-7.8c-20.2,21.9-33.5,58.6-33.5,58.6"/>
				<path class="st28" d="M196.7,330.6c0,0-4.2-38.4,11.7-70.7L227,266l-4.9,24.6"/>
				<line class="st37" x1="206.9" y1="263.6" x2="225.4" y2="269.9"/>
				<g>
					<path class="st6" d="M248.2,225.1c3-4.6,13.9-16.5,13.4-17.5c-0.5-1-4.4,3.1-4.7,2.2c-0.3-0.9,5.3-7.7,4.5-8.5
						c-1.1-1.2-6.4,6.1-6.4,6.1s5.4-8.2,4.2-9c-0.9-0.5-5.3,5.6-7.3,7.7c1.9-2.6,4.4-7.1,3.5-7.6c-0.9-0.5-4,3.6-6.6,6.6
						c1.4-2,3.8-5.8,3-6.4c-0.8-0.5-11.2,10.5-19.4,21.7"/>
				</g>
				<path class="st6" d="M234.5,320.8c0,0,19.1,7.3,33.1,8.2c18.4,1.2,39.8-5.7,39.8-5.7s2.8-15.1-4.5-14.4
					c-9.1,1.7-24.7,2.8-36.5,1.4c-7.4-0.9-23-9.3-23-9.3"/>
				<g>
					<path class="st6" d="M298.7,309.8c5.5-0.7,20.9-5.4,21.6-4.5c0.7,0.9-4.8,2.6-4.1,3.3c0.7,0.6,9.2-1.4,9.6-0.4
						c0.6,1.5-8.3,3.1-8.3,3.1s9.8-1.3,9.9,0.1c0.1,1-7.3,2.4-10.1,3.3c3.1-0.6,8.3-0.9,8.4,0.1c0.1,1-5,2.1-8.8,3.1
						c2.4-0.4,6.9-0.9,7,0.1c0.1,1-11.9,4.3-23.4,7.1"/>
				</g>
				<g>
					<path class="st6" d="M214.7,284.7l-2.6,13.1c0,0,7.4,7.4,15.1,0.5l-0.1-8.8L214.7,284.7z"/>
					<path class="st6" d="M228.6,272.4c0,0,6.3,12.6,2.4,16.7c-2,2.2-5,3-7.6,1c-2-1.5-9.6-10.5-8.5-12.2
						C218.9,271.3,228.6,272.4,228.6,272.4z"/>
					<path class="st6" d="M231.1,279.4c0,0,2.3,2.3,2.3,3.8c0,0.7-2.3,0.8-2.3,0.8"/>
					<path class="st0" d="M231,285.3l-4.1-0.6C226.7,286.3,229.8,290.1,231,285.3z"/>
					<g>
						<g>
							<path class="st13" d="M228,279.2c-0.1,0.4,0,0.9,0.4,1.2c0.2,0.1,0.4,0,0.4-0.2c0-0.3-0.1-0.6-0.2-1
								C228.5,279,228.1,278.9,228,279.2L228,279.2z"/>
						</g>
					</g>
					<path class="st14" d="M226.1,278.5c0.4-0.7,1.2-1.1,1.9-1.2c0.3,0,0.7,0,1,0.2"/>
					<g>
						<path class="st7" d="M213.4,273.3c0.7-4.5,5.2-5.4,13.7-4.1c1.1,0.2,3.2-0.4,3.7,0.6c0.6,1.4,0.5,4.1-1,5.2
							c-1.3,1-3,0.4-4.4,1c-2.3,0.8-1.1,3-2.4,4.6c-2,2.7-0.7,6.6-4,8.6c-1.9,1.2-4.3,0.8-6.5,0.4c-0.3,0-0.5-0.1-0.8-0.3
							c-0.7-0.6-0.4-2.6-0.7-3.5c-0.7-2.8-1.1-5.8-0.8-8.7C210.4,274.6,212.5,273,213.4,273.3z"/>
					</g>
					<path class="st6" d="M223,281.2c-0.4-2.6-2.4-1.7-3.1-0.8c-0.9,1.2,0.5,4.1,1.2,4.6c1.5,1.1,2.7,1.1,3-0.2"/>
					<path class="st10" d="M226.9,291.4c-2.8-0.9-4.6-2.3-4.6-2.3"/>
				</g>
				<g>
					<path class="st28" d="M212,293.9c0,0-11.4,4.8-14.9,22.9c-1.6,8,1.4,51.1,1.4,51.1c24.7,4.8,51.3-2.3,51.3-2.3
						s-3-28.1-4.4-38.7c-3.2-24.4-20-32.2-20-32.2L212,293.9z"/>
				</g>
				<path class="st28" d="M225.4,294.6c0,0,9.5,1.5,15.6,4.4c6.1,2.9,19.8,9.6,19.8,9.6l-7.1,19.5l-24.9-7.9"/>
				<line class="st37" x1="245.1" y1="325.1" x2="231.1" y2="321"/>
				<line class="st37" x1="256.5" y1="306.5" x2="249.8" y2="326.6"/>
				<path class="st37" d="M198.3,364.8c0,0,24.1,3.6,51.1-1.9"/>
			</g>
		</g>
		<g>
			<g>
				<g>
					<g>
						<path class="st6" d="M581.7,419l6,28.3l-1,9.3l-35.2-0.2c-0.9,0-1.6-0.7-1.6-1.6l0,0c0-0.7,0.4-1.3,1-1.5l15.7-7.2l-7.4-29.5"
							/>
						<path class="st8" d="M548.3,456c0.4-1.2,1.1-2.5,1.7-2.8l16.7-7.2c9.2,3.7,21.1,0.9,21.1,0.9l0.9,12.5c0,0.4-0.3,0.7-0.8,0.7
							l-39.3-0.2C547.7,460.1,548.3,456.1,548.3,456z"/>
						<path class="st31" d="M563.1,446.8c0.9,1.2,1.7,2.5,2.3,3.9"/>
						<path class="st31" d="M561,448.1c1,1.3,1.4,2.1,1.9,3.4"/>
						<path class="st31" d="M559.2,449c0.7,0.9,1.3,2.1,1.8,3.1"/>
					</g>
					<line class="st31" x1="588.4" y1="457.6" x2="548.1" y2="457.3"/>
					<path class="st31" d="M588.1,451.6c0,0-9.3,0.1-10.2,5.9"/>
					<path class="st31" d="M553.4,451.8c0,0,2.7,3.8,3.2,5.6"/>
				</g>
				<path class="st32" d="M569,316.2c0,0-22.5,50.4-21.3,68.2c1.1,16.6,13.7,58.7,13.7,58.7l27-5c0,0-12.9-52-12.2-57.4
					c0.7-5.4,17.2-42.4,17.2-42.4s6.4-8.7,4.2-23.7"/>
				<path class="st27" d="M583.9,439c0,0-12.6-52.5-11.9-57.9c0.7-5.4,16.3-41.7,16.3-41.7"/>
				<line class="st27" x1="587.2" y1="433.2" x2="560.1" y2="438.7"/>
				<g>
					<g>
						<path class="st6" d="M620.7,405.8l12.6,26.4l3.1,8.8l-32,14.8c-0.8,0.4-1.8,0-2.1-0.8l0,0c-0.3-0.6-0.2-1.3,0.3-1.8l11.2-13.2
							l-14.4-26.8"/>
						<path class="st8" d="M601.4,456.7c-0.2-1.2-0.1-2.7,0.4-3.3l12-13.6c9.9-0.5,19.5-8.1,19.5-8.1l6.1,11c0.2,0.4,0,0.8-0.4,1
							l-35.7,16.5C602.6,460.6,601.4,456.8,601.4,456.7z"/>
						<path class="st31" d="M610.8,442.1c1.4,0.7,2.6,1.6,3.8,2.6"/>
						<path class="st31" d="M609.5,444.1c1.4,0.8,2.1,1.3,3.2,2.2"/>
						<path class="st31" d="M608.3,445.7c1,0.5,2.1,1.4,2.9,2"/>
					</g>
					<line class="st31" x1="638.4" y1="441.1" x2="601.8" y2="458"/>
					<path class="st31" d="M635.5,435.8c0,0-8.4,4-6.7,9.7"/>
					<path class="st31" d="M604.2,450.7c0,0,4.1,2.3,5.3,3.7"/>
				</g>
				<path class="st32" d="M586.9,317.7c0,0-8.6,47.6-4.5,65c4.5,19.5,24.1,52.5,24.1,52.5l24.4-12.1c0,0-21-40.1-21-48.8
					c0-5.4,4.8-38.8,4.8-38.8s4.8-9.7,0.1-24.1"/>
				<path class="st27" d="M625.1,425.9c0,0-21-39.2-21-50.4c0-5.4,3.3-30.7,4.8-38.8c1.5-8.1,4.4-17.5,0.1-24.1"/>
				<path class="st27" d="M581.3,366.5c1.3-13.4,2.8-31.3,4.8-47.3"/>
				<path class="st27" d="M600.4,319.2c0,0,1.7,4.1,10.6,6.5"/>
				<path class="st27" d="M582.2,320.2c0,0-1.3,9.8-0.6,11.1c0.4,0.6,3.2,1.1,3.2,1.1"/>
				<path class="st27" d="M565.6,324c0,0,5.4,0.1,8.5-3.3"/>
				<line class="st27" x1="628.6" y1="418.9" x2="603.9" y2="430.8"/>
			</g>
			<g>
				<path class="st8" d="M576.5,244.7c0,0-10.2,2.9-11.7,22.6c-1.4,8.1,2,52.8,2,52.8c24.8,4.3,51.2-3.4,51.2-3.4s-4.6-28-6.4-38.6
					c-4.4-26.4-22.7-32.1-22.7-32.1L576.5,244.7z"/>
			</g>
			<path class="st6" d="M580.8,244.9c0,0-6-10.6-15.4-21.1c-12.3-13.7-30.9-25.2-30.9-25.2s-12.6,8.8-6.8,13.5
				c7.6,5.2,17.4,15.4,24.8,24.7c4.6,5.8,14,23.5,14,23.5"/>
			<g>
				<path class="st6" d="M531.2,214.4c-4.4-3.3-18.8-10.7-18.6-11.9c0.2-1.1,5.2,1.4,5.2,0.5c0-0.9-7.6-5.4-7.1-6.5
					c0.6-1.5,8.1,3.5,8.1,3.5s-7.9-5.9-7-7c0.6-0.8,6.9,3.4,9.5,4.7c-2.6-1.8-6.6-5.1-5.9-5.9c0.7-0.8,5,2,8.4,3.9
					c-2-1.4-5.6-4.2-5-5c0.6-0.8,11.6,4.8,22,12"/>
			</g>
			<g>
				<path class="st6" d="M599.6,277.6c0,0-9.2,18.3-19,28.4c-12.8,13.3-33.2,22.6-33.2,22.6s-12.3-9.3-6.3-13.7
					c7.8-4.9,20.2-14.6,27.9-23.6c4.8-5.6,12.6-23.2,12.6-23.2"/>
				<g>
					<path class="st6" d="M544.8,312.7c-4.5,3.1-19.1,10.1-19,11.2c0.1,1.1,5.3-1.3,5.2-0.3c-0.1,0.9-7.8,5.1-7.4,6.2
						c0.6,1.5,8.2-3.2,8.2-3.2s-8.1,5.6-7.3,6.7c0.6,0.8,7-3.2,9.6-4.4c-2.7,1.7-6.7,4.9-6.1,5.7c0.6,0.8,5.1-1.8,8.6-3.6
						c-2.1,1.3-5.7,4-5.1,4.8c0.6,0.8,11.7-4.8,22.1-10.5"/>
				</g>
				<path class="st8" d="M581.3,263.4c-2.6,8.6-9.3,22.9-9.3,22.9l18.4,9.7c0,0,9.5-11.6,13.1-25.4"/>
				<path class="st31" d="M590.3,296c0,0,10.3-14.4,12.1-22.1"/>
				<path class="st31" d="M571.9,286.3c0,0,6.8-13.2,8.3-19.6"/>
			</g>
			<path class="st8" d="M564.5,273.1c-0.2-7.2-3.7-22.2-14-36l16.2-13c0,0,14.3,11.4,18.3,21.5"/>
			<g>
				<path class="st6" d="M573.3,224c0,0-4.1,11.5-0.5,15.2c1.9,1.9,7.6,2.3,10,0.4c1.8-1.4,4.4-10.3,3.4-11.8
					C582.4,221.8,573.3,224,573.3,224z"/>
				<path class="st12" d="M575.7,229.4c0,0-2.2,2.7-2.1,3.5c0.1,0.8,2,1.1,2,1.1"/>
				<path class="st0" d="M573.3,234.9l5.2,1.3c0,0-1.3,2.6-4.1,1.7C572.4,237.2,573.3,234.9,573.3,234.9z"/>
				<g>
					<g>
						<path class="st13" d="M573.6,228.2c-0.1,0.2-0.2,0.5-0.4,0.7c-0.2,0.5,0.6,0.7,0.8,0.2c0.1-0.2,0.2-0.4,0.2-0.7
							C574.3,228.1,573.8,227.9,573.6,228.2L573.6,228.2z"/>
					</g>
				</g>
				<path class="st14" d="M575.4,227.2c0,0-0.7-1.2-2-0.5"/>
				<g>
					<g>
						<path class="st13" d="M579.5,230.3c-0.1,0.2-0.2,0.5-0.3,0.7c-0.2,0.5,0.6,0.7,0.8,0.2c0.1-0.2,0.1-0.5,0.2-0.7
							C580.2,230.2,579.6,229.9,579.5,230.3L579.5,230.3z"/>
					</g>
				</g>
				<path class="st14" d="M579.4,228.3c0,0,1.3-0.3,2.5,1.4"/>
				<path class="st6" d="M586.6,234.5l2.3,11.5c0,0-8.7,6.5-13.5-0.4l-0.1-7.5L586.6,234.5z"/>
				<g>
					<path class="st9" d="M590.8,232.5c0.1-0.4,0.2-0.8,0.4-1.2c0.3-1,0.9-1.8,1.3-2.8c0.8-1.9,0.1-4.3-1.5-5.6
						c-0.3-0.2-0.6-0.4-0.9-0.7c-0.6-0.6-0.8-1.4-1.1-2.2c-0.3-0.6-0.7-1.2-1.3-1.5c-1.4-0.7-3.2,0.3-4.5-0.5
						c-0.3-0.2-0.5-0.4-0.8-0.6c-1.9-1.5-4.2-1.1-6.3-0.4c-1,0.4-1.3,0.8-2.1,1.4c-0.9,0.7-2.2,0.7-3.1,1.3c-1,0.7-1.2,2.1-1.2,3.2
						c0,0.4,0,0.9,0.2,1.3c0.2,0.5,0.7,0.9,1.2,1.1c1.2,0.6,2.6,0.3,3.9,0.2c1.3-0.1,2.7-1,4-0.5c1.2,0.4,1.5,1.9,3,2
						c0.6,0,1.3-0.1,1.6,0.4c0.4,0.5,0.2,1.4,0.5,2c0.3,0.6,0.8,1.1,1.2,1.6c0.7,1.1,1.8,1.8,1.4,3.2c-0.3,1-1.3,2.5-0.9,3.5
						c0.3,0.7,1.8,0.7,2.9-0.2c1.2-0.9,1.5-2.6,1.8-3.9C590.6,233.5,590.7,233,590.8,232.5z"/>
				</g>
				<path class="st6" d="M585.5,232.8c1.1-1.8,2.2-1.6,2.8-0.8c0.9,1.1-0.3,3.8-1,4.3c-1.3,1-2.5,1.1-2.8-0.1"/>
				<path class="st10" d="M575.7,240.9c4.1,0.1,7.6-1.8,7.6-1.8"/>
			</g>
			<path class="st31" d="M564.3,270.5c0,0,0.3-11.2-1-14.7"/>
			<path class="st31" d="M574.3,247.7c0,0,2,3.6,7.6,3.4c6.3-0.1,8.8-4.3,8.8-4.3"/>
		</g>
		<g>
			<g>
				<g>
					<path class="st6" d="M465.6,188.2c-0.6,5.3-4.6,17.6-3.8,18.1c0.8,0.5,2.6-4.2,3.2-3.7c0.6,0.5-1.5,7.7-0.6,8
						c1.2,0.4,2.9-6.7,2.9-6.7s-1.3,7.8-0.2,7.9c0.8,0.1,2.3-5.6,2.9-7.8c-0.4,2.4-1,6.3-0.1,6.3c0.9,0,1.9-3.3,2.6-6.3
						c-0.3,1.9-1.2,5.7-0.4,5.8c0.8,0.1,3.7-8.5,5.6-19.3"/>
				</g>
				<path class="st6" d="M481.1,134.2c3.8,28.1-4.5,61.8-4.5,61.8l-11.6-2.5c0,0,4.3-30.4-0.5-57.2"/>
			</g>
			<path class="st15" d="M456.7,109.2c5.5,0,11.2,1.8,16.2,5.7c7.7,6.1,9.7,20.1,9.7,20.1l-18.3,3.7c0,0-1-11.8-1.1-15.8"/>
			<path class="st16" d="M463.6,138.7c-0.6-5.4-2.2-10.3-2.2-10.3"/>
		</g>
		<g>
			
				<rect x="581.2" y="103.5" transform="matrix(0.2626 0.9649 -0.9649 0.2626 548.1099 -487.1229)" class="st38" width="23" height="23"/>
			
				<rect x="75.9" y="360.3" transform="matrix(-0.125 0.9922 -0.9922 -0.125 454.8969 330.7366)" class="st38" width="11.3" height="11.3"/>
			
				<ellipse transform="matrix(0.1427 -0.9898 0.9898 0.1427 175.5566 962.8737)" class="st39" cx="643.6" cy="380.1" rx="9.1" ry="9.1"/>
			<path class="st38" d="M285.8,68.4c0,2.5-2,4.6-4.6,4.6c-2.5,0-4.6-2-4.6-4.6c0-2.5,2-4.6,4.6-4.6
				C283.8,63.9,285.8,65.9,285.8,68.4z"/>
			<path class="st38" d="M663.4,269.1c0,2.5-2,4.6-4.6,4.6c-2.5,0-4.6-2-4.6-4.6c0-2.5,2-4.6,4.6-4.6
				C661.4,264.6,663.4,266.6,663.4,269.1z"/>
			<path class="st38" d="M668,363.1c0,2.5-2,4.6-4.6,4.6c-2.5,0-4.6-2-4.6-4.6c0-2.5,2-4.6,4.6-4.6C665.9,358.6,668,360.6,668,363.1
				z"/>
			<path class="st39" d="M70.8,330.1c0,2.5-2,4.6-4.6,4.6c-2.5,0-4.6-2-4.6-4.6s2-4.6,4.6-4.6C68.8,325.5,70.8,327.6,70.8,330.1z"/>
			<path class="st38" d="M180.9,85.2l0.5,3c0.2,1.3,1.4,2.3,2.8,2.3l2,0c1.4,0,2.5,1,2.8,2.3l0.3,2c0.2,1.3,1.4,2.3,2.8,2.3l2,0
				c1.4,0,2.5,1,2.8,2.3l0.3,2c0.2,1.3,1.4,2.3,2.8,2.3l2.4,0"/>
			<path class="st38" d="M93.5,284.5l-0.9-2.9c-0.4-1.3-1.7-2.1-3.1-1.8l-2,0.4c-1.3,0.2-2.7-0.6-3.1-1.8l-0.6-1.9
				c-0.4-1.3-1.7-2.1-3.1-1.8l-2,0.4c-1.3,0.2-2.7-0.6-3.1-1.8l-0.6-1.9c-0.4-1.3-1.7-2.1-3.1-1.8l-2.3,0.4"/>
			<path class="st38" d="M560.6,163.8l3.1-0.3c1.4-0.1,2.4-1.2,2.5-2.6l0.1-2c0.1-1.4,1.1-2.5,2.5-2.6l2-0.2
				c1.4-0.1,2.4-1.2,2.5-2.6l0.1-2c0.1-1.4,1.1-2.5,2.5-2.6l2-0.2c1.4-0.1,2.4-1.2,2.5-2.6l0.1-2.4"/>
			<path class="st38" d="M655.1,208.1l-2.9,0.9c-1.3,0.4-2.1,1.7-1.9,3.1l0.3,2c0.2,1.3-0.6,2.7-1.9,3.1l-1.9,0.6
				c-1.3,0.4-2.1,1.7-1.9,3.1l0.3,2c0.2,1.3-0.6,2.7-1.9,3.1l-1.9,0.6c-1.3,0.4-2.1,1.7-1.9,3.1l0.4,2.4"/>
			<path class="st38" d="M671.7,341l2.5,1.7c1.1,0.8,2.6,0.6,3.6-0.4l1.3-1.5c0.9-1,2.4-1.2,3.6-0.4l1.7,1.1
				c1.1,0.8,2.6,0.6,3.6-0.4l1.3-1.5c0.9-1,2.4-1.2,3.6-0.4l1.7,1.1c1.1,0.8,2.6,0.6,3.6-0.4l1.6-1.8"/>
			<line class="st39" x1="645" y1="245.7" x2="634.5" y2="252.2"/>
			<line class="st39" x1="538.7" y1="109.1" x2="529" y2="116.8"/>
			<line class="st39" x1="323.4" y1="127" x2="311.3" y2="124.1"/>
			<line class="st39" x1="95.1" y1="179.4" x2="85.9" y2="171.1"/>
		</g>
	</g>
</g>
</svg>
