<?xml version="1.0" encoding="utf-8"?>
<!-- Generator: Adobe Illustrator 24.0.1, SVG Export Plug-In . SVG Version: 6.00 Build 0)  -->
<svg version="1.1" id="eb1b09ad-1fe0-40ca-8096-34696e14e30a"
	 xmlns="http://www.w3.org/2000/svg" xmlns:xlink="http://www.w3.org/1999/xlink" x="0px" y="0px" viewBox="0 0 1010.9 727.3"
	 style="enable-background:new 0 0 1010.9 727.3;" xml:space="preserve">
<style type="text/css">
	.st0{fill:#3F3D56;}
	.st1{fill:#D3A5C8;}
	.st2{fill:#F2F2F2;}
	.st3{fill:#6C63FF;}
	.st4{fill:#FF6584;}
	.st5{fill:#E6E6E6;}
	.st6{fill:#FFFFFF;}
	.st7{opacity:0.2;fill:#6C63FF;enable-background:new    ;}
	.st8{fill:#2F2E41;}
	.st9{fill:#FFB9B9;}
	.st10{opacity:0.1;enable-background:new    ;}
</style>
<title>unlock</title>
<g>
	<path class="st0" d="M750,583.5c-35.7-5.2-70.1-9.6-103.1-13.4l13-20.8c-4.4-1.3-23.7,10.6-23.7,10.6l17.1-60.6
		c-22.1,2.1-33.4,64-33.4,64l-24.7-21.1l12,23.6c-101-10.3-188.1-14.3-261.5-14.8l11.2-17.8c-4.4-1.3-23.7,10.6-23.7,10.6l17.1-60.6
		c-22.1,2.1-33.4,64-33.4,64l-24.7-21.1l12.7,25c-61.5,0.7-111.6,4-150.3,7.8c11.3-27.8,49.6-54.1,49.6-54.1
		c-29.3,7.1-44.7,19.1-52.7,30.3c-0.6-34.4,3.5-98.2,34.2-168.7c0,0-60.6,108.6-52.8,181.8l0.9,13c-51.3,5.8-77.1,12-77.1,12
		L750,583.5z"/>
	<path class="st1" d="M425.4,110.7v438.9c0,10.9-9,19.7-20,19.7H224.9c-11,0-20-8.8-20-19.7c0,0,0,0,0-0.1V110.7
		c0-10.9,8.9-19.7,20-19.7c0,0,0,0,0,0h27v3.4c0,9,7.4,16.2,16.4,16.2h91.8c3.5,0,6.9-1.1,9.8-3.2c0.6-0.4,1.1-0.9,1.6-1.3
		c3.2-3.1,5.1-7.3,5.1-11.7V91h28.8C416.4,91,425.4,99.8,425.4,110.7C425.4,110.7,425.4,110.7,425.4,110.7z"/>
	<ellipse class="st2" cx="255.2" cy="164.1" rx="4.8" ry="4.7"/>
	<path class="st3" d="M371.5,106.2c-0.5,0.5-1,0.9-1.6,1.3c11.9,20.7,32,35.4,55.5,40.8v-2.1C402.6,140.8,383,126.3,371.5,106.2z"/>
	<path class="st3" d="M330.5,110.7h-2.2c16.3,40.8,53.2,69.9,97.1,76.6v-2.1C382.7,178.6,346.6,150.3,330.5,110.7z"/>
	<path class="st3" d="M289.1,110.7h-2.2c18.1,62.1,72.8,108.4,138.5,115.9v-2.1C360.9,217,307.1,171.6,289.1,110.7z"/>
	<polygon class="st2" points="239.5,199.2 238.2,199.2 238.2,198 238,198 238,199.2 236.7,199.2 236.7,199.5 238,199.5 238,200.7 
		238.2,200.7 238.2,199.5 239.5,199.5 	"/>
	<polygon class="st2" points="323.8,137.6 322.6,137.6 322.6,136.4 322.3,136.4 322.3,137.6 321.1,137.6 321.1,137.8 322.3,137.8 
		322.3,139.1 322.6,139.1 322.6,137.8 323.8,137.8 	"/>
	<polygon class="st2" points="251.8,248 250.6,248 250.6,246.7 250.3,246.7 250.3,248 249.1,248 249.1,248.2 250.3,248.2 
		250.3,249.5 250.6,249.5 250.6,248.2 251.8,248.2 	"/>
	<polygon class="st2" points="309.4,212.1 308.2,212.1 308.2,210.9 307.9,210.9 307.9,212.1 306.7,212.1 306.7,212.3 307.9,212.3 
		307.9,213.6 308.2,213.6 308.2,212.3 309.4,212.3 	"/>
	<polygon class="st2" points="391.7,234.4 390.5,234.4 390.5,233.2 390.2,233.2 390.2,234.4 389,234.4 389,234.7 390.2,234.7 
		390.2,235.9 390.5,235.9 390.5,234.7 391.7,234.7 	"/>
	<ellipse class="st4" cx="377.3" cy="175.6" rx="2.7" ry="2.7"/>
	<path class="st5" d="M279,239.2l-1.6,0.2c0.5,3.1,0.9,6.2,1.2,9.3l1.6-0.1C279.9,245.4,279.5,242.3,279,239.2z"/>
	<path class="st5" d="M274.8,220.6l-1.5,0.5c0.9,3,1.7,6,2.4,9.1l1.5-0.3C276.5,226.8,275.7,223.7,274.8,220.6z"/>
	<path class="st5" d="M268,202.9l-1.4,0.7c1.3,2.8,2.6,5.7,3.7,8.7l1.5-0.5C270.6,208.7,269.3,205.8,268,202.9z"/>
	<path class="st5" d="M258.8,186.2l-1.3,0.8c1.7,2.6,3.3,5.3,4.8,8.1l1.4-0.7C262.2,191.7,260.5,188.9,258.8,186.2z"/>
	<path class="st5" d="M247.4,171l-1.2,1c2,2.4,4,4.8,5.9,7.4l1.3-0.9C251.4,175.9,249.4,173.4,247.4,171z"/>
	<path class="st5" d="M233.9,157.4l-1,1.2c2.4,2.1,4.7,4.3,6.9,6.5l1.1-1.1C238.7,161.7,236.3,159.5,233.9,157.4z"/>
	<path class="st5" d="M218.8,145.7l-0.9,1.3c2.6,1.7,5.2,3.6,7.7,5.5l1-1.2C224,149.4,221.4,147.5,218.8,145.7z"/>
	<path class="st5" d="M205,137.6v1.8c1.6,0.8,3.3,1.7,4.9,2.6l0.8-1.3C208.8,139.6,206.9,138.6,205,137.6z"/>
	<path class="st5" d="M278.7,385.4c0.3-1.5,0.5-3.1,0.7-4.6l1.6,0.2c-0.2,1.6-0.4,3.1-0.7,4.6L278.7,385.4z"/>
	<path class="st5" d="M274.3,403.7l1.5,0.5c0.9-3,1.8-6.1,2.5-9.2l-1.5-0.4C276.1,397.7,275.2,400.7,274.3,403.7z"/>
	<path class="st5" d="M267.4,421.2l1.4,0.7c1.4-2.8,2.6-5.8,3.8-8.7l-1.5-0.6C270,415.5,268.7,418.4,267.4,421.2z"/>
	<path class="st5" d="M258.1,437.6l1.3,0.8c1.7-2.6,3.4-5.4,5-8.1l-1.4-0.8C261.5,432.3,259.9,435,258.1,437.6z"/>
	<path class="st5" d="M246.7,452.6l1.2,1c2.1-2.4,4.1-4.9,6.1-7.4l-1.3-0.9C250.8,447.8,248.7,450.2,246.7,452.6z"/>
	<path class="st5" d="M233.2,465.9l1,1.2c2.4-2.1,4.8-4.3,7-6.5l-1.1-1.1C238,461.7,235.6,463.8,233.2,465.9z"/>
	<path class="st5" d="M218.1,477.3l0.9,1.3c2.7-1.7,5.3-3.6,7.8-5.5l-1-1.2C223.4,473.7,220.8,475.6,218.1,477.3z"/>
	<path class="st5" d="M210.8,483.5c-1.9,1.1-3.9,2.1-5.8,3.1v-1.7c1.7-0.9,3.4-1.8,5-2.7L210.8,483.5z"/>
	<path class="st5" d="M279.1,258.3l1.6,0c0,1.6,0,3.2,0,4.7l-1.6,0C279.2,261.4,279.2,259.9,279.1,258.3z"/>
	<path class="st6" d="M211.9,295.3h161.3c25,0,45.3,20,45.3,44.7v5.9l0,0H257.2c-25,0-45.3-20-45.3-44.7c0,0,0,0,0,0L211.9,295.3
		L211.9,295.3z"/>
	<path class="st2" d="M318.9,568.7c-0.2-0.3-3.9-6.4-5.2-19.1c-1.2-11.7-0.4-31.3,9.9-58.7c19.5-51.9-4.5-93.8-4.8-94.2l1.2-0.7
		c0.1,0.1,6.3,10.8,9.9,27.8c4.8,22.5,3.1,46-5.1,67.6c-19.5,51.8-5,76.4-4.9,76.6L318.9,568.7z"/>
	<ellipse class="st3" cx="311.3" cy="384.9" rx="8.9" ry="8.8"/>
	<ellipse class="st2" cx="339.4" cy="417.4" rx="8.9" ry="8.8"/>
	<ellipse class="st3" cx="320.2" cy="439.1" rx="8.9" ry="8.8"/>
	<ellipse class="st3" cx="343.5" cy="457.3" rx="8.9" ry="8.8"/>
	<ellipse class="st2" cx="313.4" cy="485.8" rx="8.9" ry="8.8"/>
	<path class="st2" d="M324.3,569.1c0,0-8.9-21.7,17.8-37.9L324.3,569.1z"/>
	<path class="st2" d="M313.4,568.7c0,0-4.1-23-35.5-22.8L313.4,568.7z"/>
	<ellipse class="st7" cx="277.9" cy="320.6" rx="54.9" ry="54.2"/>
	<ellipse class="st7" cx="277.9" cy="320.6" rx="38.6" ry="38.1"/>
	<ellipse class="st3" cx="277.9" cy="320.6" rx="25.5" ry="25.2"/>
	<path class="st6" d="M282.5,315.1c0-2.5-2.1-4.6-4.6-4.6s-4.6,2-4.6,4.6c0,1.4,0.6,2.7,1.7,3.6l-1.7,11.8h9.3l-1.7-11.8
		C281.9,317.8,282.5,316.5,282.5,315.1z"/>
	<path class="st8" d="M534.1,127.1c0,0-15.3-13.5-35.9,12c-20.6,25.5-52.7,38-60.1,47.9c0,0,30.6-12.5,41.1-17.7
		c10.5-5.2,10-4.2,10-4.2s-14.2,9.9-16.9,19.8c-2.6,9.9-0.5,18.2-5.3,28.1c-4.7,9.9,90.7,6.8,90.7,6.8s9.5-16.1,6.9-32.8
		S563.7,129.2,534.1,127.1z"/>
	<path class="st9" d="M505.2,169.7c0,0,3.3,23-10.9,28.1c-14.3,5.2-9,12.2-9,12.2l21.4,10.3l22.8-7l7.6-11.3c0,0-12.4-2.8-9-11.3
		s4.3-11.3,4.3-11.3L505.2,169.7z"/>
	<path class="st10" d="M505.2,169.7c0,0,3.3,23-10.9,28.1c-14.3,5.2-9,12.2-9,12.2l21.4,10.3l22.8-7l7.6-11.3c0,0-12.4-2.8-9-11.3
		s4.3-11.3,4.3-11.3L505.2,169.7z"/>
	<path class="st9" d="M565.1,235.4c0,0-3.3,43.2-2.4,45s0,67.1,0,67.1s6.7,35.2-1.9,37.1c-8.6,1.9-6.7-39.4-6.7-39.4l-8.6-54.4
		l1-53.9L565.1,235.4z"/>
	<path class="st10" d="M565.1,235.4c0,0-3.3,43.2-2.4,45s0,67.1,0,67.1s6.7,35.2-1.9,37.1c-8.6,1.9-6.7-39.4-6.7-39.4l-8.6-54.4
		l1-53.9L565.1,235.4z"/>
	<path class="st9" d="M472.4,365.3c0,0-15.7,58.6-15.2,87.3c0.5,28.6,6.7,68.5,6.7,68.5s1,17.4-0.5,19.2c-1.4,1.9,7.1,9.9,7.1,9.9
		l9-5.2l3.3-3.8V538c0,0-5.2-16-1-28.6c4.3-12.7,6.7-44.6,2.4-54.4l29.5-86.3L472.4,365.3z"/>
	<path class="st8" d="M471.5,542.6c0,0-5.7-7-9.5-4.7s-10,18.3-10,18.3s-21.4,20.2-6.2,21.1c15.2,0.9,21.9-4.2,23.8-8
		s19.5-13.6,19.5-13.6s-1.9-17.8-4.8-18.3s-7.1,7-7.1,7L471.5,542.6z"/>
	<path class="st9" d="M524.2,369.1v58.2c0.1,7.1,0.5,14.1,1.4,21.1c1.4,10.3-8.1,87.3-8.1,87.3l1,13.6l11.9-0.9l1.4-11.7l17.1-51.6
		c0,0,5.7-31.4,2.9-43.2c-2.9-11.7,14.7-86.8,14.7-86.8L524.2,369.1z"/>
	<path class="st8" d="M514.7,545.9l3.5-0.8c0,0,2.7-5.8,6-4.4c2.3,1.1,4.6,2.4,6.6,3.9l1.5,2.7c0,0,3.3,7,7.6,11.7
		c4.3,4.7,9,15,1.9,16s-16.6,1.4-19.5-0.9c-2.9-2.3-1-6.1-3.8-7c-2.9-0.9-5.2-3.8-4.8-4.7S514.7,545.9,514.7,545.9z"/>
	<ellipse class="st9" cx="524.2" cy="165" rx="21.1" ry="20.8"/>
	<path class="st3" d="M484.3,201.6l6.3-2.2c0,0-2.5,4,10.8,6.4c13.3,2.3,27.1,3.2,33.3-4.5c0,0,2.4-1.1,5.7,2.2s5.2,2.3,5.2,2.3
		l-2.4,12.2l-4.8,22.5l-6.2,16.9l-17.6-3.8l-19-13.6l-7.1-18.3v-16.9L484.3,201.6z"/>
	<path class="st3" d="M542.3,208.2l4.8-3.3c0,0,16.2,2.8,17.1,10.3l-12.4,23.5c2.5,6.5,2.3,13.8-0.5,20.2
		c-4.8,10.8-4.3,13.1-4.3,13.1l-3.3,14.1l-60.3,4.7c0,0-2.4-5.6-3.3-6.6s-1-4.2,0-4.2s0-1.4-1-2.8c-1-1.4-1.4-1.9,0-3.8
		c1.4-1.9-2.4-18.8-2.4-18.8v-18.3l-16.2-21.1c0,0,5.7-8.4,8.6-9.4c2.9-0.9,16.4-4.6,16.4-4.6l3.1,4.5l4.3,34l6.2,20.6l26-4.4
		l10.1-16.7l6.7-19.7L542.3,208.2z"/>
	<path class="st3" d="M560.3,212.4l3.8,2.8c0,0,3.3,26.3,2.4,28.1c-1,1.9-17.6,3.8-18.1,2.8C548,245.2,560.3,212.4,560.3,212.4z"/>
	<path class="st8" d="M481.9,199.2l4.8,31c0,0-4.3,46-3.3,55.4l1,2.8c0,0-1.9-0.9-2.4,0.9c-0.5,1.9,0,8,0,8s-2.9,2.8-3.8,18.3
		s-12.4,52.5-8.1,53.9c4.3,1.4,29.9,8.4,43.7,7s63.2-17.8,62.7-22c-0.5-4.2-24.2-63.8-24.2-63.8s-4.3-7-4.3-8s5.7-4.7,4.3-8.4
		c-1.4-3.8-9-43.2-9-43.2l5.2-28.1l-7.1-1.9l-5.2,27.2c0,0-20.4,9.9-41.8,0.9l-4.8-31.9L481.9,199.2z"/>
	<path class="st8" d="M504.8,150c0,0,35.2,23.9,44.7,13.1c9.5-10.8-16.6-20.2-16.6-20.2l-21.9-2.3L504.8,150z"/>
	<path class="st3" d="M450.2,404.6c8.2,6,19.8,4.4,25.9-3.8c6.1-8.1,4.4-19.6-3.8-25.6c-8.2-6-19.8-4.4-25.9,3.8
		c-4,5.3-4.8,12.4-2,18.5l-48.5,39.9l-6.5-7.6l-2.9,1.9l-3.2-3.8l2.7-2.2l-3.2-3.8l-4.1,3.4l2,2.3l-4.4,3.7l-2-2.3l-6.5,5.4l3,3.5
		l2.4-2l3.2,3.8l-2.9,2.5l6,7l-7.1,5.9l7.2,8.4L450.2,404.6z M462.3,377.8c6.7,0.6,11.8,6.4,11.2,13.1c-0.6,6.7-6.5,11.6-13.3,11
		c-6.7-0.6-11.8-6.4-11.2-13.1C449.6,382.2,455.5,377.2,462.3,377.8L462.3,377.8z"/>
	<path class="st9" d="M457.2,241c0,0,3.3,43.2,2.4,45s0,67.1,0,67.1s-6.7,35.2,1.9,37.1c8.6,1.9,6.7-39.4,6.7-39.4l8.6-54.4l-1-53.9
		L457.2,241z"/>
	<path class="st3" d="M464.3,213.8l-3.8,1.4c0,0-7.1,29.6-5.2,29.6c1.9,0,24.7,2.8,24.7,1.9c0-0.9-4.3-23.9-4.3-23.9L464.3,213.8z"
		/>
</g>
</svg>
